solid ascii
  facet normal -1.000000e+000 -0.000000e+000 -0.000000e+000
    outer loop
      vertex   -2.242428e+002 2.981571e+002 5.000000e+000
      vertex   -2.242428e+002 2.981571e+002 0.000000e+000
      vertex   -2.242428e+002 2.481571e+002 5.000000e+000
    endloop
  endfacet
  facet normal -9.950372e-001 0.000000e+000 0.000000e+000
    outer loop
      vertex   -2.242428e+002 2.481571e+002 5.000000e+000
      vertex   -2.242428e+002 2.981571e+002 0.000000e+000
      vertex   -2.242428e+002 2.481571e+002 0.000000e+000
    endloop
  endfacet
  facet normal -1.000000e+000 -0.000000e+000 -0.000000e+000
    outer loop
      vertex   -2.242428e+002 2.481571e+002 5.000000e+000
      vertex   -2.242428e+002 2.481571e+002 0.000000e+000
      vertex   -2.242428e+002 1.981571e+002 5.000000e+000
    endloop
  endfacet
  facet normal -9.950372e-001 0.000000e+000 0.000000e+000
    outer loop
      vertex   -2.242428e+002 1.981571e+002 5.000000e+000
      vertex   -2.242428e+002 2.481571e+002 0.000000e+000
      vertex   -2.242428e+002 1.981571e+002 0.000000e+000
    endloop
  endfacet
  facet normal 0.000000e+000 1.000000e+000 0.000000e+000
    outer loop
      vertex   -1.642428e+002 2.981571e+002 5.000000e+000
      vertex   -1.642428e+002 2.981571e+002 0.000000e+000
      vertex   -1.942428e+002 2.981571e+002 5.000000e+000
    endloop
  endfacet
  facet normal 0.000000e+000 9.863939e-001 0.000000e+000
    outer loop
      vertex   -1.942428e+002 2.981571e+002 5.000000e+000
      vertex   -1.642428e+002 2.981571e+002 0.000000e+000
      vertex   -1.942428e+002 2.981571e+002 0.000000e+000
    endloop
  endfacet
  facet normal 0.000000e+000 1.000000e+000 0.000000e+000
    outer loop
      vertex   -1.942428e+002 2.981571e+002 5.000000e+000
      vertex   -1.942428e+002 2.981571e+002 0.000000e+000
      vertex   -2.242428e+002 2.981571e+002 5.000000e+000
    endloop
  endfacet
  facet normal 0.000000e+000 9.863939e-001 0.000000e+000
    outer loop
      vertex   -2.242428e+002 2.981571e+002 5.000000e+000
      vertex   -1.942428e+002 2.981571e+002 0.000000e+000
      vertex   -2.242428e+002 2.981571e+002 0.000000e+000
    endloop
  endfacet
  facet normal 1.000000e+000 -0.000000e+000 0.000000e+000
    outer loop
      vertex   -1.642428e+002 1.981571e+002 5.000000e+000
      vertex   -1.642428e+002 1.981571e+002 0.000000e+000
      vertex   -1.642428e+002 2.481571e+002 5.000000e+000
    endloop
  endfacet
  facet normal 9.950372e-001 0.000000e+000 0.000000e+000
    outer loop
      vertex   -1.642428e+002 2.481571e+002 5.000000e+000
      vertex   -1.642428e+002 1.981571e+002 0.000000e+000
      vertex   -1.642428e+002 2.481571e+002 0.000000e+000
    endloop
  endfacet
  facet normal 1.000000e+000 -0.000000e+000 0.000000e+000
    outer loop
      vertex   -1.642428e+002 2.481571e+002 5.000000e+000
      vertex   -1.642428e+002 2.481571e+002 0.000000e+000
      vertex   -1.642428e+002 2.981571e+002 5.000000e+000
    endloop
  endfacet
  facet normal 9.950372e-001 0.000000e+000 0.000000e+000
    outer loop
      vertex   -1.642428e+002 2.981571e+002 5.000000e+000
      vertex   -1.642428e+002 2.481571e+002 0.000000e+000
      vertex   -1.642428e+002 2.981571e+002 0.000000e+000
    endloop
  endfacet
  facet normal 0.000000e+000 -1.000000e+000 0.000000e+000
    outer loop
      vertex   -1.642428e+002 1.981571e+002 0.000000e+000
      vertex   -1.642428e+002 1.981571e+002 5.000000e+000
      vertex   -1.742428e+002 1.981571e+002 0.000000e+000
    endloop
  endfacet
  facet normal 0.000000e+000 -8.944272e-001 0.000000e+000
    outer loop
      vertex   -1.742428e+002 1.981571e+002 0.000000e+000
      vertex   -1.642428e+002 1.981571e+002 5.000000e+000
      vertex   -1.742428e+002 1.981571e+002 5.000000e+000
    endloop
  endfacet
  facet normal -1.000000e+000 0.000000e+000 0.000000e+000
    outer loop
      vertex   -1.742428e+002 1.981571e+002 0.000000e+000
      vertex   -1.742428e+002 1.981571e+002 5.000000e+000
      vertex   -1.742428e+002 2.081571e+002 0.000000e+000
    endloop
  endfacet
  facet normal -8.944272e-001 0.000000e+000 0.000000e+000
    outer loop
      vertex   -1.742428e+002 2.081571e+002 0.000000e+000
      vertex   -1.742428e+002 1.981571e+002 5.000000e+000
      vertex   -1.742428e+002 2.081571e+002 5.000000e+000
    endloop
  endfacet
  facet normal 0.000000e+000 -1.000000e+000 0.000000e+000
    outer loop
      vertex   -1.742428e+002 2.081571e+002 0.000000e+000
      vertex   -1.742428e+002 2.081571e+002 5.000000e+000
      vertex   -2.142428e+002 2.081571e+002 0.000000e+000
    endloop
  endfacet
  facet normal 0.000000e+000 -9.922779e-001 0.000000e+000
    outer loop
      vertex   -2.142428e+002 2.081571e+002 0.000000e+000
      vertex   -1.742428e+002 2.081571e+002 5.000000e+000
      vertex   -2.142428e+002 2.081571e+002 5.000000e+000
    endloop
  endfacet
  facet normal 1.000000e+000 0.000000e+000 -0.000000e+000
    outer loop
      vertex   -2.142428e+002 2.081571e+002 0.000000e+000
      vertex   -2.142428e+002 2.081571e+002 5.000000e+000
      vertex   -2.142428e+002 1.981571e+002 0.000000e+000
    endloop
  endfacet
  facet normal 8.944272e-001 0.000000e+000 0.000000e+000
    outer loop
      vertex   -2.142428e+002 1.981571e+002 0.000000e+000
      vertex   -2.142428e+002 2.081571e+002 5.000000e+000
      vertex   -2.142428e+002 1.981571e+002 5.000000e+000
    endloop
  endfacet
  facet normal 0.000000e+000 -1.000000e+000 0.000000e+000
    outer loop
      vertex   -2.142428e+002 1.981571e+002 0.000000e+000
      vertex   -2.142428e+002 1.981571e+002 5.000000e+000
      vertex   -2.242428e+002 1.981571e+002 0.000000e+000
    endloop
  endfacet
  facet normal 0.000000e+000 -8.944272e-001 0.000000e+000
    outer loop
      vertex   -2.242428e+002 1.981571e+002 0.000000e+000
      vertex   -2.142428e+002 1.981571e+002 5.000000e+000
      vertex   -2.242428e+002 1.981571e+002 5.000000e+000
    endloop
  endfacet
  facet normal 0.000000e+000 -0.000000e+000 1.000000e+000
    outer loop
      vertex   -2.142428e+002 1.981571e+002 5.000000e+000
      vertex   -2.142428e+002 2.081571e+002 5.000000e+000
      vertex   -2.242428e+002 1.981571e+002 5.000000e+000
    endloop
  endfacet
  facet normal 0.000000e+000 0.000000e+000 7.071068e-001
    outer loop
      vertex   -2.242428e+002 1.981571e+002 5.000000e+000
      vertex   -2.142428e+002 2.081571e+002 5.000000e+000
      vertex   -2.242428e+002 2.481571e+002 5.000000e+000
    endloop
  endfacet
  facet normal 0.000000e+000 0.000000e+000 6.060432e-001
    outer loop
      vertex   -2.242428e+002 2.481571e+002 5.000000e+000
      vertex   -2.142428e+002 2.081571e+002 5.000000e+000
      vertex   -1.742428e+002 2.081571e+002 5.000000e+000
    endloop
  endfacet
  facet normal -0.000000e+000 0.000000e+000 6.246951e-001
    outer loop
      vertex   -2.242428e+002 2.481571e+002 5.000000e+000
      vertex   -1.742428e+002 2.081571e+002 5.000000e+000
      vertex   -1.642428e+002 2.481571e+002 5.000000e+000
    endloop
  endfacet
  facet normal 0.000000e+000 0.000000e+000 2.425356e-001
    outer loop
      vertex   -1.642428e+002 2.481571e+002 5.000000e+000
      vertex   -1.742428e+002 2.081571e+002 5.000000e+000
      vertex   -1.642428e+002 1.981571e+002 5.000000e+000
    endloop
  endfacet
  facet normal 0.000000e+000 0.000000e+000 7.071068e-001
    outer loop
      vertex   -1.642428e+002 1.981571e+002 5.000000e+000
      vertex   -1.742428e+002 2.081571e+002 5.000000e+000
      vertex   -1.742428e+002 1.981571e+002 5.000000e+000
    endloop
  endfacet
  facet normal 0.000000e+000 0.000000e+000 1.000000e+000
    outer loop
      vertex   -1.642428e+002 2.981571e+002 5.000000e+000
      vertex   -1.942428e+002 2.981571e+002 5.000000e+000
      vertex   -1.642428e+002 2.481571e+002 5.000000e+000
    endloop
  endfacet
  facet normal 0.000000e+000 0.000000e+000 8.574929e-001
    outer loop
      vertex   -1.642428e+002 2.481571e+002 5.000000e+000
      vertex   -1.942428e+002 2.981571e+002 5.000000e+000
      vertex   -2.242428e+002 2.481571e+002 5.000000e+000
    endloop
  endfacet
  facet normal 0.000000e+000 0.000000e+000 8.574929e-001
    outer loop
      vertex   -1.942428e+002 2.981571e+002 5.000000e+000
      vertex   -2.242428e+002 2.981571e+002 5.000000e+000
      vertex   -2.242428e+002 2.481571e+002 5.000000e+000
    endloop
  endfacet
  facet normal 0.000000e+000 0.000000e+000 -1.000000e+000
    outer loop
      vertex   -2.142428e+002 1.981571e+002 0.000000e+000
      vertex   -2.242428e+002 1.981571e+002 0.000000e+000
      vertex   -2.142428e+002 2.081571e+002 0.000000e+000
    endloop
  endfacet
  facet normal -0.000000e+000 0.000000e+000 -8.574929e-001
    outer loop
      vertex   -2.142428e+002 2.081571e+002 0.000000e+000
      vertex   -2.242428e+002 1.981571e+002 0.000000e+000
      vertex   -2.242428e+002 2.481571e+002 0.000000e+000
    endloop
  endfacet
  facet normal 0.000000e+000 0.000000e+000 -9.090648e-001
    outer loop
      vertex   -2.142428e+002 2.081571e+002 0.000000e+000
      vertex   -2.242428e+002 2.481571e+002 0.000000e+000
      vertex   -1.642428e+002 2.481571e+002 0.000000e+000
    endloop
  endfacet
  facet normal 0.000000e+000 0.000000e+000 -8.574929e-001
    outer loop
      vertex   -1.642428e+002 2.481571e+002 0.000000e+000
      vertex   -2.242428e+002 2.481571e+002 0.000000e+000
      vertex   -1.942428e+002 2.981571e+002 0.000000e+000
    endloop
  endfacet
  facet normal 0.000000e+000 0.000000e+000 -5.144957e-001
    outer loop
      vertex   -1.642428e+002 2.481571e+002 0.000000e+000
      vertex   -1.942428e+002 2.981571e+002 0.000000e+000
      vertex   -1.642428e+002 2.981571e+002 0.000000e+000
    endloop
  endfacet
  facet normal 0.000000e+000 0.000000e+000 -5.144957e-001
    outer loop
      vertex   -2.242428e+002 2.481571e+002 0.000000e+000
      vertex   -2.242428e+002 2.981571e+002 0.000000e+000
      vertex   -1.942428e+002 2.981571e+002 0.000000e+000
    endloop
  endfacet
  facet normal 0.000000e+000 0.000000e+000 -6.246951e-001
    outer loop
      vertex   -2.142428e+002 2.081571e+002 0.000000e+000
      vertex   -1.642428e+002 2.481571e+002 0.000000e+000
      vertex   -1.742428e+002 2.081571e+002 0.000000e+000
    endloop
  endfacet
  facet normal 0.000000e+000 0.000000e+000 -8.574929e-001
    outer loop
      vertex   -1.742428e+002 2.081571e+002 0.000000e+000
      vertex   -1.642428e+002 2.481571e+002 0.000000e+000
      vertex   -1.642428e+002 1.981571e+002 0.000000e+000
    endloop
  endfacet
  facet normal 0.000000e+000 0.000000e+000 -7.071068e-001
    outer loop
      vertex   -1.742428e+002 2.081571e+002 0.000000e+000
      vertex   -1.642428e+002 1.981571e+002 0.000000e+000
      vertex   -1.742428e+002 1.981571e+002 0.000000e+000
    endloop
  endfacet
endsolid
