solid model
facet normal 1.0 -0.0 -0.0
outer loop
vertex 100.0 0.0 0.0
vertex 100.0 10.000000000000004 3.0
vertex 100.0 0.0 15.0
endloop
endfacet
facet normal 1.0 -0.0 -0.0
outer loop
vertex 100.0 10.000000000000004 3.0
vertex 100.0 0.0 0.0
vertex 100.0 65.0 0.0
endloop
endfacet
facet normal 1.0 -0.0 -0.0
outer loop
vertex 100.0 10.000000000000004 3.0
vertex 100.0 65.0 0.0
vertex 100.0 65.0 3.0
endloop
endfacet
facet normal 1.0 -0.0 -0.0
outer loop
vertex 100.0 10.000000000000004 15.0
vertex 100.0 0.0 15.0
vertex 100.0 10.000000000000004 3.0
endloop
endfacet
facet normal 0.0 0.0 -1.0
outer loop
vertex 100.0 65.0 0.0
vertex 0.0 0.0 0.0
vertex 0.0 65.0 0.0
endloop
endfacet
facet normal 0.0 0.0 -1.0
outer loop
vertex 0.0 0.0 0.0
vertex 100.0 65.0 0.0
vertex 100.0 0.0 0.0
endloop
endfacet
facet normal -1.0 0.0 0.0
outer loop
vertex 0.0 65.0 15.0
vertex 0.0 0.0 0.0
vertex 0.0 0.0 15.0
endloop
endfacet
facet normal -1.0 0.0 0.0
outer loop
vertex 0.0 0.0 0.0
vertex 0.0 65.0 15.0
vertex 0.0 65.0 0.0
endloop
endfacet
facet normal 1.0 0.0 0.0
outer loop
vertex 30.0 65.0 3.0
vertex 30.0 10.000000000000004 15.0
vertex 30.0 10.000000000000004 3.0
endloop
endfacet
facet normal 1.0 0.0 0.0
outer loop
vertex 30.0 10.000000000000004 15.0
vertex 30.0 65.0 3.0
vertex 30.0 65.0 15.0
endloop
endfacet
facet normal -0.0 -1.0 -0.0
outer loop
vertex 100.0 0.0 15.0
vertex 0.0 0.0 0.0
vertex 100.0 0.0 0.0
endloop
endfacet
facet normal -0.0 -1.0 -0.0
outer loop
vertex 0.0 0.0 0.0
vertex 100.0 0.0 15.0
vertex 0.0 0.0 15.0
endloop
endfacet
facet normal -0.0 -0.0 1.0
outer loop
vertex 0.0 0.0 15.0
vertex 30.0 10.000000000000004 15.0
vertex 0.0 65.0 15.0
endloop
endfacet
facet normal -0.0 -0.0 1.0
outer loop
vertex 30.0 10.000000000000004 15.0
vertex 0.0 0.0 15.0
vertex 100.0 0.0 15.0
endloop
endfacet
facet normal -0.0 -0.0 1.0
outer loop
vertex 30.0 10.000000000000004 15.0
vertex 100.0 0.0 15.0
vertex 100.0 10.000000000000004 15.0
endloop
endfacet
facet normal -0.0 -0.0 1.0
outer loop
vertex 30.0 65.0 15.0
vertex 0.0 65.0 15.0
vertex 30.0 10.000000000000004 15.0
endloop
endfacet
facet normal 0.0 0.0 1.0
outer loop
vertex 100.0 10.000000000000004 3.0
vertex 30.0 65.0 3.0
vertex 30.0 10.000000000000004 3.0
endloop
endfacet
facet normal 0.0 0.0 1.0
outer loop
vertex 30.0 65.0 3.0
vertex 100.0 10.000000000000004 3.0
vertex 100.0 65.0 3.0
endloop
endfacet
facet normal -0.0 1.0 -0.0
outer loop
vertex 30.0 10.000000000000004 15.0
vertex 100.0 10.000000000000004 3.0
vertex 30.0 10.000000000000004 3.0
endloop
endfacet
facet normal -0.0 1.0 -0.0
outer loop
vertex 100.0 10.000000000000004 3.0
vertex 30.0 10.000000000000004 15.0
vertex 100.0 10.000000000000004 15.0
endloop
endfacet
facet normal -0.0 1.0 -0.0
outer loop
vertex 0.0 65.0 0.0
vertex 30.0 65.0 3.0
vertex 100.0 65.0 0.0
endloop
endfacet
facet normal -0.0 1.0 -0.0
outer loop
vertex 30.0 65.0 3.0
vertex 0.0 65.0 0.0
vertex 0.0 65.0 15.0
endloop
endfacet
facet normal -0.0 1.0 -0.0
outer loop
vertex 30.0 65.0 3.0
vertex 0.0 65.0 15.0
vertex 30.0 65.0 15.0
endloop
endfacet
facet normal -0.0 1.0 -0.0
outer loop
vertex 100.0 65.0 3.0
vertex 100.0 65.0 0.0
vertex 30.0 65.0 3.0
endloop
endfacet
endsolid model
