solid ascii
  facet normal 0.000000e+000 1.000000e+000 0.000000e+000
    outer loop
      vertex   -1.000000e+002 1.300000e+002 0.000000e+000
      vertex   -1.000000e+002 1.300000e+002 5.000000e+000
      vertex   -9.000000e+001 1.300000e+002 0.000000e+000
    endloop
  endfacet
  facet normal 0.000000e+000 8.944272e-001 -0.000000e+000
    outer loop
      vertex   -9.000000e+001 1.300000e+002 0.000000e+000
      vertex   -1.000000e+002 1.300000e+002 5.000000e+000
      vertex   -9.000000e+001 1.300000e+002 5.000000e+000
    endloop
  endfacet
  facet normal 1.000000e+000 -0.000000e+000 0.000000e+000
    outer loop
      vertex   -9.000000e+001 5.000000e+001 5.000000e+000
      vertex   -9.000000e+001 5.000000e+001 0.000000e+000
      vertex   -9.000000e+001 9.000000e+001 5.000000e+000
    endloop
  endfacet
  facet normal 9.922779e-001 0.000000e+000 0.000000e+000
    outer loop
      vertex   -9.000000e+001 9.000000e+001 5.000000e+000
      vertex   -9.000000e+001 5.000000e+001 0.000000e+000
      vertex   -9.000000e+001 9.000000e+001 0.000000e+000
    endloop
  endfacet
  facet normal 1.000000e+000 -0.000000e+000 0.000000e+000
    outer loop
      vertex   -9.000000e+001 9.000000e+001 5.000000e+000
      vertex   -9.000000e+001 9.000000e+001 0.000000e+000
      vertex   -9.000000e+001 1.300000e+002 5.000000e+000
    endloop
  endfacet
  facet normal 9.922779e-001 0.000000e+000 0.000000e+000
    outer loop
      vertex   -9.000000e+001 1.300000e+002 5.000000e+000
      vertex   -9.000000e+001 9.000000e+001 0.000000e+000
      vertex   -9.000000e+001 1.300000e+002 0.000000e+000
    endloop
  endfacet
  facet normal 0.000000e+000 -1.000000e+000 0.000000e+000
    outer loop
      vertex   -9.000000e+001 5.000000e+001 0.000000e+000
      vertex   -9.000000e+001 5.000000e+001 5.000000e+000
      vertex   -1.000000e+002 5.000000e+001 0.000000e+000
    endloop
  endfacet
  facet normal 0.000000e+000 -8.944272e-001 0.000000e+000
    outer loop
      vertex   -1.000000e+002 5.000000e+001 0.000000e+000
      vertex   -9.000000e+001 5.000000e+001 5.000000e+000
      vertex   -1.000000e+002 5.000000e+001 5.000000e+000
    endloop
  endfacet
  facet normal -1.000000e+000 -0.000000e+000 -0.000000e+000
    outer loop
      vertex   -1.000000e+002 1.300000e+002 5.000000e+000
      vertex   -1.000000e+002 1.300000e+002 0.000000e+000
      vertex   -1.000000e+002 9.000000e+001 5.000000e+000
    endloop
  endfacet
  facet normal -9.922779e-001 0.000000e+000 0.000000e+000
    outer loop
      vertex   -1.000000e+002 9.000000e+001 5.000000e+000
      vertex   -1.000000e+002 1.300000e+002 0.000000e+000
      vertex   -1.000000e+002 9.000000e+001 0.000000e+000
    endloop
  endfacet
  facet normal -1.000000e+000 -0.000000e+000 -0.000000e+000
    outer loop
      vertex   -1.000000e+002 9.000000e+001 5.000000e+000
      vertex   -1.000000e+002 9.000000e+001 0.000000e+000
      vertex   -1.000000e+002 5.000000e+001 5.000000e+000
    endloop
  endfacet
  facet normal -9.922779e-001 0.000000e+000 0.000000e+000
    outer loop
      vertex   -1.000000e+002 5.000000e+001 5.000000e+000
      vertex   -1.000000e+002 9.000000e+001 0.000000e+000
      vertex   -1.000000e+002 5.000000e+001 0.000000e+000
    endloop
  endfacet
  facet normal 0.000000e+000 0.000000e+000 1.000000e+000
    outer loop
      vertex   -9.000000e+001 1.300000e+002 5.000000e+000
      vertex   -1.000000e+002 1.300000e+002 5.000000e+000
      vertex   -9.000000e+001 9.000000e+001 5.000000e+000
    endloop
  endfacet
  facet normal 0.000000e+000 0.000000e+000 9.701425e-001
    outer loop
      vertex   -9.000000e+001 9.000000e+001 5.000000e+000
      vertex   -1.000000e+002 1.300000e+002 5.000000e+000
      vertex   -1.000000e+002 9.000000e+001 5.000000e+000
    endloop
  endfacet
  facet normal 0.000000e+000 0.000000e+000 1.000000e+000
    outer loop
      vertex   -9.000000e+001 9.000000e+001 5.000000e+000
      vertex   -1.000000e+002 9.000000e+001 5.000000e+000
      vertex   -9.000000e+001 5.000000e+001 5.000000e+000
    endloop
  endfacet
  facet normal 0.000000e+000 0.000000e+000 9.701425e-001
    outer loop
      vertex   -9.000000e+001 5.000000e+001 5.000000e+000
      vertex   -1.000000e+002 9.000000e+001 5.000000e+000
      vertex   -1.000000e+002 5.000000e+001 5.000000e+000
    endloop
  endfacet
  facet normal 0.000000e+000 0.000000e+000 -1.000000e+000
    outer loop
      vertex   -9.000000e+001 5.000000e+001 0.000000e+000
      vertex   -1.000000e+002 5.000000e+001 0.000000e+000
      vertex   -9.000000e+001 9.000000e+001 0.000000e+000
    endloop
  endfacet
  facet normal -0.000000e+000 0.000000e+000 -9.701425e-001
    outer loop
      vertex   -9.000000e+001 9.000000e+001 0.000000e+000
      vertex   -1.000000e+002 5.000000e+001 0.000000e+000
      vertex   -1.000000e+002 9.000000e+001 0.000000e+000
    endloop
  endfacet
  facet normal 0.000000e+000 0.000000e+000 -1.000000e+000
    outer loop
      vertex   -9.000000e+001 9.000000e+001 0.000000e+000
      vertex   -1.000000e+002 9.000000e+001 0.000000e+000
      vertex   -9.000000e+001 1.300000e+002 0.000000e+000
    endloop
  endfacet
  facet normal -0.000000e+000 0.000000e+000 -9.701425e-001
    outer loop
      vertex   -9.000000e+001 1.300000e+002 0.000000e+000
      vertex   -1.000000e+002 9.000000e+001 0.000000e+000
      vertex   -1.000000e+002 1.300000e+002 0.000000e+000
    endloop
  endfacet
endsolid
