solid ascii
  facet normal -1.000000e+000 0.000000e+000 0.000000e+000
    outer loop
      vertex   -2.873721e+002 1.578112e+002 0.000000e+000
      vertex   -2.873721e+002 1.578112e+002 5.000000e+000
      vertex   -2.873721e+002 1.678112e+002 0.000000e+000
    endloop
  endfacet
  facet normal -8.944272e-001 0.000000e+000 0.000000e+000
    outer loop
      vertex   -2.873721e+002 1.678112e+002 0.000000e+000
      vertex   -2.873721e+002 1.578112e+002 5.000000e+000
      vertex   -2.873721e+002 1.678112e+002 5.000000e+000
    endloop
  endfacet
  facet normal 0.000000e+000 1.000000e+000 0.000000e+000
    outer loop
      vertex   -2.873721e+002 1.678112e+002 0.000000e+000
      vertex   -2.873721e+002 1.678112e+002 5.000000e+000
      vertex   -2.473721e+002 1.678112e+002 0.000000e+000
    endloop
  endfacet
  facet normal 0.000000e+000 9.922779e-001 -0.000000e+000
    outer loop
      vertex   -2.473721e+002 1.678112e+002 0.000000e+000
      vertex   -2.873721e+002 1.678112e+002 5.000000e+000
      vertex   -2.473721e+002 1.678112e+002 5.000000e+000
    endloop
  endfacet
  facet normal 0.000000e+000 1.000000e+000 0.000000e+000
    outer loop
      vertex   -2.473721e+002 1.678112e+002 0.000000e+000
      vertex   -2.473721e+002 1.678112e+002 5.000000e+000
      vertex   -2.373721e+002 1.678112e+002 0.000000e+000
    endloop
  endfacet
  facet normal 0.000000e+000 8.944272e-001 -0.000000e+000
    outer loop
      vertex   -2.373721e+002 1.678112e+002 0.000000e+000
      vertex   -2.473721e+002 1.678112e+002 5.000000e+000
      vertex   -2.373721e+002 1.678112e+002 5.000000e+000
    endloop
  endfacet
  facet normal -1.000000e+000 0.000000e+000 0.000000e+000
    outer loop
      vertex   -2.373721e+002 1.678112e+002 0.000000e+000
      vertex   -2.373721e+002 1.678112e+002 5.000000e+000
      vertex   -2.373721e+002 1.778112e+002 0.000000e+000
    endloop
  endfacet
  facet normal -8.944272e-001 0.000000e+000 0.000000e+000
    outer loop
      vertex   -2.373721e+002 1.778112e+002 0.000000e+000
      vertex   -2.373721e+002 1.678112e+002 5.000000e+000
      vertex   -2.373721e+002 1.778112e+002 5.000000e+000
    endloop
  endfacet
  facet normal 0.000000e+000 -1.000000e+000 0.000000e+000
    outer loop
      vertex   -2.373721e+002 1.778112e+002 0.000000e+000
      vertex   -2.373721e+002 1.778112e+002 5.000000e+000
      vertex   -2.473721e+002 1.778112e+002 0.000000e+000
    endloop
  endfacet
  facet normal 0.000000e+000 -8.944272e-001 0.000000e+000
    outer loop
      vertex   -2.473721e+002 1.778112e+002 0.000000e+000
      vertex   -2.373721e+002 1.778112e+002 5.000000e+000
      vertex   -2.473721e+002 1.778112e+002 5.000000e+000
    endloop
  endfacet
  facet normal 1.000000e+000 0.000000e+000 -0.000000e+000
    outer loop
      vertex   -2.473721e+002 1.778112e+002 0.000000e+000
      vertex   -2.473721e+002 1.778112e+002 5.000000e+000
      vertex   -2.473721e+002 1.678112e+002 0.000000e+000
    endloop
  endfacet
  facet normal 8.944272e-001 0.000000e+000 0.000000e+000
    outer loop
      vertex   -2.473721e+002 1.678112e+002 0.000000e+000
      vertex   -2.473721e+002 1.778112e+002 5.000000e+000
      vertex   -2.473721e+002 1.678112e+002 5.000000e+000
    endloop
  endfacet
  facet normal 0.000000e+000 -1.000000e+000 0.000000e+000
    outer loop
      vertex   -2.473721e+002 1.678112e+002 0.000000e+000
      vertex   -2.473721e+002 1.678112e+002 5.000000e+000
      vertex   -2.873721e+002 1.678112e+002 0.000000e+000
    endloop
  endfacet
  facet normal 0.000000e+000 -9.922779e-001 0.000000e+000
    outer loop
      vertex   -2.873721e+002 1.678112e+002 0.000000e+000
      vertex   -2.473721e+002 1.678112e+002 5.000000e+000
      vertex   -2.873721e+002 1.678112e+002 5.000000e+000
    endloop
  endfacet
  facet normal -1.000000e+000 -0.000000e+000 -0.000000e+000
    outer loop
      vertex   -2.873721e+002 2.278112e+002 5.000000e+000
      vertex   -2.873721e+002 2.278112e+002 0.000000e+000
      vertex   -2.873721e+002 1.978112e+002 5.000000e+000
    endloop
  endfacet
  facet normal -9.863939e-001 0.000000e+000 0.000000e+000
    outer loop
      vertex   -2.873721e+002 1.978112e+002 5.000000e+000
      vertex   -2.873721e+002 2.278112e+002 0.000000e+000
      vertex   -2.873721e+002 1.978112e+002 0.000000e+000
    endloop
  endfacet
  facet normal -1.000000e+000 -0.000000e+000 -0.000000e+000
    outer loop
      vertex   -2.873721e+002 1.978112e+002 5.000000e+000
      vertex   -2.873721e+002 1.978112e+002 0.000000e+000
      vertex   -2.873721e+002 1.678112e+002 5.000000e+000
    endloop
  endfacet
  facet normal -9.863939e-001 0.000000e+000 0.000000e+000
    outer loop
      vertex   -2.873721e+002 1.678112e+002 5.000000e+000
      vertex   -2.873721e+002 1.978112e+002 0.000000e+000
      vertex   -2.873721e+002 1.678112e+002 0.000000e+000
    endloop
  endfacet
  facet normal 0.000000e+000 1.000000e+000 0.000000e+000
    outer loop
      vertex   -2.873721e+002 2.278112e+002 0.000000e+000
      vertex   -2.873721e+002 2.278112e+002 5.000000e+000
      vertex   -2.473721e+002 2.278112e+002 0.000000e+000
    endloop
  endfacet
  facet normal 0.000000e+000 9.922779e-001 -0.000000e+000
    outer loop
      vertex   -2.473721e+002 2.278112e+002 0.000000e+000
      vertex   -2.873721e+002 2.278112e+002 5.000000e+000
      vertex   -2.473721e+002 2.278112e+002 5.000000e+000
    endloop
  endfacet
  facet normal 1.000000e+000 0.000000e+000 -0.000000e+000
    outer loop
      vertex   -2.473721e+002 2.278112e+002 0.000000e+000
      vertex   -2.473721e+002 2.278112e+002 5.000000e+000
      vertex   -2.473721e+002 2.178112e+002 0.000000e+000
    endloop
  endfacet
  facet normal 8.944272e-001 0.000000e+000 0.000000e+000
    outer loop
      vertex   -2.473721e+002 2.178112e+002 0.000000e+000
      vertex   -2.473721e+002 2.278112e+002 5.000000e+000
      vertex   -2.473721e+002 2.178112e+002 5.000000e+000
    endloop
  endfacet
  facet normal 0.000000e+000 1.000000e+000 0.000000e+000
    outer loop
      vertex   -2.473721e+002 2.178112e+002 0.000000e+000
      vertex   -2.473721e+002 2.178112e+002 5.000000e+000
      vertex   -2.373721e+002 2.178112e+002 0.000000e+000
    endloop
  endfacet
  facet normal 0.000000e+000 8.944272e-001 -0.000000e+000
    outer loop
      vertex   -2.373721e+002 2.178112e+002 0.000000e+000
      vertex   -2.473721e+002 2.178112e+002 5.000000e+000
      vertex   -2.373721e+002 2.178112e+002 5.000000e+000
    endloop
  endfacet
  facet normal -1.000000e+000 0.000000e+000 0.000000e+000
    outer loop
      vertex   -2.373721e+002 2.178112e+002 0.000000e+000
      vertex   -2.373721e+002 2.178112e+002 5.000000e+000
      vertex   -2.373721e+002 2.278112e+002 0.000000e+000
    endloop
  endfacet
  facet normal -8.944272e-001 0.000000e+000 0.000000e+000
    outer loop
      vertex   -2.373721e+002 2.278112e+002 0.000000e+000
      vertex   -2.373721e+002 2.178112e+002 5.000000e+000
      vertex   -2.373721e+002 2.278112e+002 5.000000e+000
    endloop
  endfacet
  facet normal 0.000000e+000 -1.000000e+000 0.000000e+000
    outer loop
      vertex   -2.373721e+002 2.278112e+002 0.000000e+000
      vertex   -2.373721e+002 2.278112e+002 5.000000e+000
      vertex   -2.473721e+002 2.278112e+002 0.000000e+000
    endloop
  endfacet
  facet normal 0.000000e+000 -8.944272e-001 0.000000e+000
    outer loop
      vertex   -2.473721e+002 2.278112e+002 0.000000e+000
      vertex   -2.373721e+002 2.278112e+002 5.000000e+000
      vertex   -2.473721e+002 2.278112e+002 5.000000e+000
    endloop
  endfacet
  facet normal 0.000000e+000 -1.000000e+000 0.000000e+000
    outer loop
      vertex   -2.473721e+002 2.278112e+002 0.000000e+000
      vertex   -2.473721e+002 2.278112e+002 5.000000e+000
      vertex   -2.873721e+002 2.278112e+002 0.000000e+000
    endloop
  endfacet
  facet normal 0.000000e+000 -9.922779e-001 0.000000e+000
    outer loop
      vertex   -2.873721e+002 2.278112e+002 0.000000e+000
      vertex   -2.473721e+002 2.278112e+002 5.000000e+000
      vertex   -2.873721e+002 2.278112e+002 5.000000e+000
    endloop
  endfacet
  facet normal -1.000000e+000 0.000000e+000 0.000000e+000
    outer loop
      vertex   -2.873721e+002 2.278112e+002 0.000000e+000
      vertex   -2.873721e+002 2.278112e+002 5.000000e+000
      vertex   -2.873721e+002 2.378112e+002 0.000000e+000
    endloop
  endfacet
  facet normal -8.944272e-001 0.000000e+000 0.000000e+000
    outer loop
      vertex   -2.873721e+002 2.378112e+002 0.000000e+000
      vertex   -2.873721e+002 2.278112e+002 5.000000e+000
      vertex   -2.873721e+002 2.378112e+002 5.000000e+000
    endloop
  endfacet
  facet normal 0.000000e+000 1.000000e+000 0.000000e+000
    outer loop
      vertex   -1.273721e+002 2.378112e+002 5.000000e+000
      vertex   -1.273721e+002 2.378112e+002 0.000000e+000
      vertex   -1.807054e+002 2.378112e+002 5.000000e+000
    endloop
  endfacet
  facet normal 0.000000e+000 9.956342e-001 0.000000e+000
    outer loop
      vertex   -1.807054e+002 2.378112e+002 5.000000e+000
      vertex   -1.273721e+002 2.378112e+002 0.000000e+000
      vertex   -1.807054e+002 2.378112e+002 0.000000e+000
    endloop
  endfacet
  facet normal 0.000000e+000 1.000000e+000 0.000000e+000
    outer loop
      vertex   -1.807054e+002 2.378112e+002 5.000000e+000
      vertex   -1.807054e+002 2.378112e+002 0.000000e+000
      vertex   -2.340387e+002 2.378112e+002 5.000000e+000
    endloop
  endfacet
  facet normal 0.000000e+000 9.956342e-001 0.000000e+000
    outer loop
      vertex   -2.340387e+002 2.378112e+002 5.000000e+000
      vertex   -1.807054e+002 2.378112e+002 0.000000e+000
      vertex   -2.340387e+002 2.378112e+002 0.000000e+000
    endloop
  endfacet
  facet normal 0.000000e+000 1.000000e+000 0.000000e+000
    outer loop
      vertex   -2.340387e+002 2.378112e+002 5.000000e+000
      vertex   -2.340387e+002 2.378112e+002 0.000000e+000
      vertex   -2.873721e+002 2.378112e+002 5.000000e+000
    endloop
  endfacet
  facet normal 0.000000e+000 9.956342e-001 0.000000e+000
    outer loop
      vertex   -2.873721e+002 2.378112e+002 5.000000e+000
      vertex   -2.340387e+002 2.378112e+002 0.000000e+000
      vertex   -2.873721e+002 2.378112e+002 0.000000e+000
    endloop
  endfacet
  facet normal 1.000000e+000 0.000000e+000 -0.000000e+000
    outer loop
      vertex   -1.273721e+002 2.378112e+002 0.000000e+000
      vertex   -1.273721e+002 2.378112e+002 5.000000e+000
      vertex   -1.273721e+002 2.278112e+002 0.000000e+000
    endloop
  endfacet
  facet normal 8.944272e-001 0.000000e+000 0.000000e+000
    outer loop
      vertex   -1.273721e+002 2.278112e+002 0.000000e+000
      vertex   -1.273721e+002 2.378112e+002 5.000000e+000
      vertex   -1.273721e+002 2.278112e+002 5.000000e+000
    endloop
  endfacet
  facet normal 0.000000e+000 -1.000000e+000 0.000000e+000
    outer loop
      vertex   -1.273721e+002 2.278112e+002 0.000000e+000
      vertex   -1.273721e+002 2.278112e+002 5.000000e+000
      vertex   -1.573721e+002 2.278112e+002 0.000000e+000
    endloop
  endfacet
  facet normal 0.000000e+000 -9.863939e-001 0.000000e+000
    outer loop
      vertex   -1.573721e+002 2.278112e+002 0.000000e+000
      vertex   -1.273721e+002 2.278112e+002 5.000000e+000
      vertex   -1.573721e+002 2.278112e+002 5.000000e+000
    endloop
  endfacet
  facet normal 0.000000e+000 -1.000000e+000 0.000000e+000
    outer loop
      vertex   -1.573721e+002 2.278112e+002 0.000000e+000
      vertex   -1.573721e+002 2.278112e+002 5.000000e+000
      vertex   -1.673721e+002 2.278112e+002 0.000000e+000
    endloop
  endfacet
  facet normal 0.000000e+000 -8.944272e-001 0.000000e+000
    outer loop
      vertex   -1.673721e+002 2.278112e+002 0.000000e+000
      vertex   -1.573721e+002 2.278112e+002 5.000000e+000
      vertex   -1.673721e+002 2.278112e+002 5.000000e+000
    endloop
  endfacet
  facet normal 1.000000e+000 0.000000e+000 -0.000000e+000
    outer loop
      vertex   -1.673721e+002 2.278112e+002 0.000000e+000
      vertex   -1.673721e+002 2.278112e+002 5.000000e+000
      vertex   -1.673721e+002 2.178112e+002 0.000000e+000
    endloop
  endfacet
  facet normal 8.944272e-001 0.000000e+000 0.000000e+000
    outer loop
      vertex   -1.673721e+002 2.178112e+002 0.000000e+000
      vertex   -1.673721e+002 2.278112e+002 5.000000e+000
      vertex   -1.673721e+002 2.178112e+002 5.000000e+000
    endloop
  endfacet
  facet normal 0.000000e+000 1.000000e+000 0.000000e+000
    outer loop
      vertex   -1.673721e+002 2.178112e+002 0.000000e+000
      vertex   -1.673721e+002 2.178112e+002 5.000000e+000
      vertex   -1.573721e+002 2.178112e+002 0.000000e+000
    endloop
  endfacet
  facet normal 0.000000e+000 8.944272e-001 -0.000000e+000
    outer loop
      vertex   -1.573721e+002 2.178112e+002 0.000000e+000
      vertex   -1.673721e+002 2.178112e+002 5.000000e+000
      vertex   -1.573721e+002 2.178112e+002 5.000000e+000
    endloop
  endfacet
  facet normal -1.000000e+000 0.000000e+000 0.000000e+000
    outer loop
      vertex   -1.573721e+002 2.178112e+002 0.000000e+000
      vertex   -1.573721e+002 2.178112e+002 5.000000e+000
      vertex   -1.573721e+002 2.278112e+002 0.000000e+000
    endloop
  endfacet
  facet normal -8.944272e-001 0.000000e+000 0.000000e+000
    outer loop
      vertex   -1.573721e+002 2.278112e+002 0.000000e+000
      vertex   -1.573721e+002 2.178112e+002 5.000000e+000
      vertex   -1.573721e+002 2.278112e+002 5.000000e+000
    endloop
  endfacet
  facet normal 0.000000e+000 1.000000e+000 0.000000e+000
    outer loop
      vertex   -1.573721e+002 2.278112e+002 0.000000e+000
      vertex   -1.573721e+002 2.278112e+002 5.000000e+000
      vertex   -1.273721e+002 2.278112e+002 0.000000e+000
    endloop
  endfacet
  facet normal 0.000000e+000 9.863939e-001 -0.000000e+000
    outer loop
      vertex   -1.273721e+002 2.278112e+002 0.000000e+000
      vertex   -1.573721e+002 2.278112e+002 5.000000e+000
      vertex   -1.273721e+002 2.278112e+002 5.000000e+000
    endloop
  endfacet
  facet normal 1.000000e+000 -0.000000e+000 0.000000e+000
    outer loop
      vertex   -1.273721e+002 1.678112e+002 5.000000e+000
      vertex   -1.273721e+002 1.678112e+002 0.000000e+000
      vertex   -1.273721e+002 1.978112e+002 5.000000e+000
    endloop
  endfacet
  facet normal 9.863939e-001 0.000000e+000 0.000000e+000
    outer loop
      vertex   -1.273721e+002 1.978112e+002 5.000000e+000
      vertex   -1.273721e+002 1.678112e+002 0.000000e+000
      vertex   -1.273721e+002 1.978112e+002 0.000000e+000
    endloop
  endfacet
  facet normal 1.000000e+000 -0.000000e+000 0.000000e+000
    outer loop
      vertex   -1.273721e+002 1.978112e+002 5.000000e+000
      vertex   -1.273721e+002 1.978112e+002 0.000000e+000
      vertex   -1.273721e+002 2.278112e+002 5.000000e+000
    endloop
  endfacet
  facet normal 9.863939e-001 0.000000e+000 0.000000e+000
    outer loop
      vertex   -1.273721e+002 2.278112e+002 5.000000e+000
      vertex   -1.273721e+002 1.978112e+002 0.000000e+000
      vertex   -1.273721e+002 2.278112e+002 0.000000e+000
    endloop
  endfacet
  facet normal 0.000000e+000 -1.000000e+000 0.000000e+000
    outer loop
      vertex   -1.273721e+002 1.678112e+002 0.000000e+000
      vertex   -1.273721e+002 1.678112e+002 5.000000e+000
      vertex   -1.573721e+002 1.678112e+002 0.000000e+000
    endloop
  endfacet
  facet normal 0.000000e+000 -9.863939e-001 0.000000e+000
    outer loop
      vertex   -1.573721e+002 1.678112e+002 0.000000e+000
      vertex   -1.273721e+002 1.678112e+002 5.000000e+000
      vertex   -1.573721e+002 1.678112e+002 5.000000e+000
    endloop
  endfacet
  facet normal -1.000000e+000 0.000000e+000 0.000000e+000
    outer loop
      vertex   -1.573721e+002 1.678112e+002 0.000000e+000
      vertex   -1.573721e+002 1.678112e+002 5.000000e+000
      vertex   -1.573721e+002 1.778112e+002 0.000000e+000
    endloop
  endfacet
  facet normal -8.944272e-001 0.000000e+000 0.000000e+000
    outer loop
      vertex   -1.573721e+002 1.778112e+002 0.000000e+000
      vertex   -1.573721e+002 1.678112e+002 5.000000e+000
      vertex   -1.573721e+002 1.778112e+002 5.000000e+000
    endloop
  endfacet
  facet normal 0.000000e+000 -1.000000e+000 0.000000e+000
    outer loop
      vertex   -1.573721e+002 1.778112e+002 0.000000e+000
      vertex   -1.573721e+002 1.778112e+002 5.000000e+000
      vertex   -1.673721e+002 1.778112e+002 0.000000e+000
    endloop
  endfacet
  facet normal 0.000000e+000 -8.944272e-001 0.000000e+000
    outer loop
      vertex   -1.673721e+002 1.778112e+002 0.000000e+000
      vertex   -1.573721e+002 1.778112e+002 5.000000e+000
      vertex   -1.673721e+002 1.778112e+002 5.000000e+000
    endloop
  endfacet
  facet normal 1.000000e+000 0.000000e+000 -0.000000e+000
    outer loop
      vertex   -1.673721e+002 1.778112e+002 0.000000e+000
      vertex   -1.673721e+002 1.778112e+002 5.000000e+000
      vertex   -1.673721e+002 1.678112e+002 0.000000e+000
    endloop
  endfacet
  facet normal 8.944272e-001 0.000000e+000 0.000000e+000
    outer loop
      vertex   -1.673721e+002 1.678112e+002 0.000000e+000
      vertex   -1.673721e+002 1.778112e+002 5.000000e+000
      vertex   -1.673721e+002 1.678112e+002 5.000000e+000
    endloop
  endfacet
  facet normal 0.000000e+000 1.000000e+000 0.000000e+000
    outer loop
      vertex   -1.673721e+002 1.678112e+002 0.000000e+000
      vertex   -1.673721e+002 1.678112e+002 5.000000e+000
      vertex   -1.573721e+002 1.678112e+002 0.000000e+000
    endloop
  endfacet
  facet normal 0.000000e+000 8.944272e-001 -0.000000e+000
    outer loop
      vertex   -1.573721e+002 1.678112e+002 0.000000e+000
      vertex   -1.673721e+002 1.678112e+002 5.000000e+000
      vertex   -1.573721e+002 1.678112e+002 5.000000e+000
    endloop
  endfacet
  facet normal 0.000000e+000 1.000000e+000 0.000000e+000
    outer loop
      vertex   -1.573721e+002 1.678112e+002 0.000000e+000
      vertex   -1.573721e+002 1.678112e+002 5.000000e+000
      vertex   -1.273721e+002 1.678112e+002 0.000000e+000
    endloop
  endfacet
  facet normal 0.000000e+000 9.863939e-001 -0.000000e+000
    outer loop
      vertex   -1.273721e+002 1.678112e+002 0.000000e+000
      vertex   -1.573721e+002 1.678112e+002 5.000000e+000
      vertex   -1.273721e+002 1.678112e+002 5.000000e+000
    endloop
  endfacet
  facet normal 1.000000e+000 0.000000e+000 -0.000000e+000
    outer loop
      vertex   -1.273721e+002 1.678112e+002 0.000000e+000
      vertex   -1.273721e+002 1.678112e+002 5.000000e+000
      vertex   -1.273721e+002 1.578112e+002 0.000000e+000
    endloop
  endfacet
  facet normal 8.944272e-001 0.000000e+000 0.000000e+000
    outer loop
      vertex   -1.273721e+002 1.578112e+002 0.000000e+000
      vertex   -1.273721e+002 1.678112e+002 5.000000e+000
      vertex   -1.273721e+002 1.578112e+002 5.000000e+000
    endloop
  endfacet
  facet normal 0.000000e+000 -1.000000e+000 0.000000e+000
    outer loop
      vertex   -2.873721e+002 1.578112e+002 5.000000e+000
      vertex   -2.873721e+002 1.578112e+002 0.000000e+000
      vertex   -2.340387e+002 1.578112e+002 5.000000e+000
    endloop
  endfacet
  facet normal 0.000000e+000 -9.956342e-001 -0.000000e+000
    outer loop
      vertex   -2.340387e+002 1.578112e+002 5.000000e+000
      vertex   -2.873721e+002 1.578112e+002 0.000000e+000
      vertex   -2.340387e+002 1.578112e+002 0.000000e+000
    endloop
  endfacet
  facet normal 0.000000e+000 -1.000000e+000 0.000000e+000
    outer loop
      vertex   -2.340387e+002 1.578112e+002 5.000000e+000
      vertex   -2.340387e+002 1.578112e+002 0.000000e+000
      vertex   -1.807054e+002 1.578112e+002 5.000000e+000
    endloop
  endfacet
  facet normal 0.000000e+000 -9.956342e-001 -0.000000e+000
    outer loop
      vertex   -1.807054e+002 1.578112e+002 5.000000e+000
      vertex   -2.340387e+002 1.578112e+002 0.000000e+000
      vertex   -1.807054e+002 1.578112e+002 0.000000e+000
    endloop
  endfacet
  facet normal 0.000000e+000 -1.000000e+000 0.000000e+000
    outer loop
      vertex   -1.807054e+002 1.578112e+002 5.000000e+000
      vertex   -1.807054e+002 1.578112e+002 0.000000e+000
      vertex   -1.273721e+002 1.578112e+002 5.000000e+000
    endloop
  endfacet
  facet normal 0.000000e+000 -9.956342e-001 -0.000000e+000
    outer loop
      vertex   -1.273721e+002 1.578112e+002 5.000000e+000
      vertex   -1.807054e+002 1.578112e+002 0.000000e+000
      vertex   -1.273721e+002 1.578112e+002 0.000000e+000
    endloop
  endfacet
  facet normal -0.000000e+000 0.000000e+000 1.000000e+000
    outer loop
      vertex   -2.873721e+002 1.678112e+002 5.000000e+000
      vertex   -2.873721e+002 1.578112e+002 5.000000e+000
      vertex   -2.473721e+002 1.678112e+002 5.000000e+000
    endloop
  endfacet
  facet normal 0.000000e+000 0.000000e+000 7.761140e-001
    outer loop
      vertex   -2.473721e+002 1.678112e+002 5.000000e+000
      vertex   -2.873721e+002 1.578112e+002 5.000000e+000
      vertex   -2.340387e+002 1.578112e+002 5.000000e+000
    endloop
  endfacet
  facet normal -0.000000e+000 0.000000e+000 6.000001e-001
    outer loop
      vertex   -2.473721e+002 1.678112e+002 5.000000e+000
      vertex   -2.340387e+002 1.578112e+002 5.000000e+000
      vertex   -2.373721e+002 1.678112e+002 5.000000e+000
    endloop
  endfacet
  facet normal -0.000000e+000 0.000000e+000 3.162273e-001
    outer loop
      vertex   -2.373721e+002 1.678112e+002 5.000000e+000
      vertex   -2.340387e+002 1.578112e+002 5.000000e+000
      vertex   -2.373721e+002 1.778112e+002 5.000000e+000
    endloop
  endfacet
  facet normal -0.000000e+000 0.000000e+000 3.243239e-001
    outer loop
      vertex   -2.373721e+002 1.778112e+002 5.000000e+000
      vertex   -2.340387e+002 1.578112e+002 5.000000e+000
      vertex   -2.340387e+002 1.978112e+002 5.000000e+000
    endloop
  endfacet
  facet normal 0.000000e+000 -0.000000e+000 9.863940e-001
    outer loop
      vertex   -2.373721e+002 1.778112e+002 5.000000e+000
      vertex   -2.340387e+002 1.978112e+002 5.000000e+000
      vertex   -2.473721e+002 1.778112e+002 5.000000e+000
    endloop
  endfacet
  facet normal 0.000000e+000 -0.000000e+000 9.922779e-001
    outer loop
      vertex   -2.473721e+002 1.778112e+002 5.000000e+000
      vertex   -2.340387e+002 1.978112e+002 5.000000e+000
      vertex   -2.873721e+002 1.978112e+002 5.000000e+000
    endloop
  endfacet
  facet normal 0.000000e+000 0.000000e+000 6.507912e-001
    outer loop
      vertex   -2.473721e+002 1.778112e+002 5.000000e+000
      vertex   -2.873721e+002 1.978112e+002 5.000000e+000
      vertex   -2.873721e+002 1.678112e+002 5.000000e+000
    endloop
  endfacet
  facet normal 0.000000e+000 0.000000e+000 1.000000e+000
    outer loop
      vertex   -2.340387e+002 1.578112e+002 5.000000e+000
      vertex   -1.807054e+002 1.578112e+002 5.000000e+000
      vertex   -2.340387e+002 1.978112e+002 5.000000e+000
    endloop
  endfacet
  facet normal -0.000000e+000 0.000000e+000 6.000000e-001
    outer loop
      vertex   -2.340387e+002 1.978112e+002 5.000000e+000
      vertex   -1.807054e+002 1.578112e+002 5.000000e+000
      vertex   -1.807054e+002 1.978112e+002 5.000000e+000
    endloop
  endfacet
  facet normal 0.000000e+000 0.000000e+000 1.000000e+000
    outer loop
      vertex   -2.340387e+002 1.978112e+002 5.000000e+000
      vertex   -1.807054e+002 1.978112e+002 5.000000e+000
      vertex   -2.340387e+002 2.378112e+002 5.000000e+000
    endloop
  endfacet
  facet normal -0.000000e+000 0.000000e+000 6.000000e-001
    outer loop
      vertex   -2.340387e+002 2.378112e+002 5.000000e+000
      vertex   -1.807054e+002 1.978112e+002 5.000000e+000
      vertex   -1.807054e+002 2.378112e+002 5.000000e+000
    endloop
  endfacet
  facet normal 0.000000e+000 0.000000e+000 5.547005e-001
    outer loop
      vertex   -1.807054e+002 2.378112e+002 5.000000e+000
      vertex   -1.807054e+002 1.978112e+002 5.000000e+000
      vertex   -1.673721e+002 2.178112e+002 5.000000e+000
    endloop
  endfacet
  facet normal 0.000000e+000 0.000000e+000 3.328201e-001
    outer loop
      vertex   -1.807054e+002 2.378112e+002 5.000000e+000
      vertex   -1.673721e+002 2.178112e+002 5.000000e+000
      vertex   -1.673721e+002 2.278112e+002 5.000000e+000
    endloop
  endfacet
  facet normal 0.000000e+000 0.000000e+000 3.162278e-001
    outer loop
      vertex   -1.273721e+002 1.578112e+002 5.000000e+000
      vertex   -1.573721e+002 1.678112e+002 5.000000e+000
      vertex   -1.807054e+002 1.578112e+002 5.000000e+000
    endloop
  endfacet
  facet normal 0.000000e+000 0.000000e+000 2.363514e-001
    outer loop
      vertex   -1.807054e+002 1.578112e+002 5.000000e+000
      vertex   -1.573721e+002 1.678112e+002 5.000000e+000
      vertex   -1.673721e+002 1.678112e+002 5.000000e+000
    endloop
  endfacet
  facet normal 0.000000e+000 0.000000e+000 3.328201e-001
    outer loop
      vertex   -1.807054e+002 1.578112e+002 5.000000e+000
      vertex   -1.673721e+002 1.678112e+002 5.000000e+000
      vertex   -1.673721e+002 1.778112e+002 5.000000e+000
    endloop
  endfacet
  facet normal 0.000000e+000 -0.000000e+000 9.486833e-001
    outer loop
      vertex   -1.273721e+002 1.578112e+002 5.000000e+000
      vertex   -1.273721e+002 1.678112e+002 5.000000e+000
      vertex   -1.573721e+002 1.678112e+002 5.000000e+000
    endloop
  endfacet
  facet normal 0.000000e+000 0.000000e+000 5.547005e-001
    outer loop
      vertex   -1.807054e+002 1.578112e+002 5.000000e+000
      vertex   -1.673721e+002 1.778112e+002 5.000000e+000
      vertex   -1.807054e+002 1.978112e+002 5.000000e+000
    endloop
  endfacet
  facet normal 0.000000e+000 0.000000e+000 2.707455e-001
    outer loop
      vertex   -1.807054e+002 1.978112e+002 5.000000e+000
      vertex   -1.673721e+002 1.778112e+002 5.000000e+000
      vertex   -1.573721e+002 1.778112e+002 5.000000e+000
    endloop
  endfacet
  facet normal -0.000000e+000 0.000000e+000 6.507912e-001
    outer loop
      vertex   -1.807054e+002 1.978112e+002 5.000000e+000
      vertex   -1.573721e+002 1.778112e+002 5.000000e+000
      vertex   -1.273721e+002 1.978112e+002 5.000000e+000
    endloop
  endfacet
  facet normal 0.000000e+000 0.000000e+000 8.320502e-001
    outer loop
      vertex   -1.273721e+002 1.978112e+002 5.000000e+000
      vertex   -1.573721e+002 1.778112e+002 5.000000e+000
      vertex   -1.273721e+002 1.678112e+002 5.000000e+000
    endloop
  endfacet
  facet normal 0.000000e+000 0.000000e+000 3.162278e-001
    outer loop
      vertex   -1.273721e+002 1.678112e+002 5.000000e+000
      vertex   -1.573721e+002 1.778112e+002 5.000000e+000
      vertex   -1.573721e+002 1.678112e+002 5.000000e+000
    endloop
  endfacet
  facet normal 0.000000e+000 0.000000e+000 6.507912e-001
    outer loop
      vertex   -1.807054e+002 1.978112e+002 5.000000e+000
      vertex   -1.273721e+002 1.978112e+002 5.000000e+000
      vertex   -1.573721e+002 2.178112e+002 5.000000e+000
    endloop
  endfacet
  facet normal -0.000000e+000 0.000000e+000 7.893524e-001
    outer loop
      vertex   -1.573721e+002 2.178112e+002 5.000000e+000
      vertex   -1.273721e+002 1.978112e+002 5.000000e+000
      vertex   -1.273721e+002 2.278112e+002 5.000000e+000
    endloop
  endfacet
  facet normal 0.000000e+000 0.000000e+000 9.486833e-001
    outer loop
      vertex   -1.573721e+002 2.178112e+002 5.000000e+000
      vertex   -1.273721e+002 2.278112e+002 5.000000e+000
      vertex   -1.573721e+002 2.278112e+002 5.000000e+000
    endloop
  endfacet
  facet normal 0.000000e+000 0.000000e+000 6.507912e-001
    outer loop
      vertex   -1.573721e+002 2.178112e+002 5.000000e+000
      vertex   -1.673721e+002 2.178112e+002 5.000000e+000
      vertex   -1.807054e+002 1.978112e+002 5.000000e+000
    endloop
  endfacet
  facet normal 0.000000e+000 -0.000000e+000 5.999997e-001
    outer loop
      vertex   -1.673721e+002 2.278112e+002 5.000000e+000
      vertex   -1.573721e+002 2.278112e+002 5.000000e+000
      vertex   -1.807054e+002 2.378112e+002 5.000000e+000
    endloop
  endfacet
  facet normal -0.000000e+000 0.000000e+000 3.939191e-001
    outer loop
      vertex   -1.807054e+002 2.378112e+002 5.000000e+000
      vertex   -1.573721e+002 2.278112e+002 5.000000e+000
      vertex   -1.273721e+002 2.378112e+002 5.000000e+000
    endloop
  endfacet
  facet normal 0.000000e+000 0.000000e+000 9.486833e-001
    outer loop
      vertex   -1.273721e+002 2.378112e+002 5.000000e+000
      vertex   -1.573721e+002 2.278112e+002 5.000000e+000
      vertex   -1.273721e+002 2.278112e+002 5.000000e+000
    endloop
  endfacet
  facet normal -0.000000e+000 0.000000e+000 2.425355e-001
    outer loop
      vertex   -2.873721e+002 2.378112e+002 5.000000e+000
      vertex   -2.473721e+002 2.278112e+002 5.000000e+000
      vertex   -2.340387e+002 2.378112e+002 5.000000e+000
    endloop
  endfacet
  facet normal 0.000000e+000 0.000000e+000 5.692102e-001
    outer loop
      vertex   -2.340387e+002 2.378112e+002 5.000000e+000
      vertex   -2.473721e+002 2.278112e+002 5.000000e+000
      vertex   -2.373721e+002 2.278112e+002 5.000000e+000
    endloop
  endfacet
  facet normal 0.000000e+000 0.000000e+000 1.559624e-001
    outer loop
      vertex   -2.340387e+002 2.378112e+002 5.000000e+000
      vertex   -2.373721e+002 2.278112e+002 5.000000e+000
      vertex   -2.373721e+002 2.178112e+002 5.000000e+000
    endloop
  endfacet
  facet normal 0.000000e+000 0.000000e+000 9.701425e-001
    outer loop
      vertex   -2.873721e+002 2.378112e+002 5.000000e+000
      vertex   -2.873721e+002 2.278112e+002 5.000000e+000
      vertex   -2.473721e+002 2.278112e+002 5.000000e+000
    endloop
  endfacet
  facet normal 0.000000e+000 0.000000e+000 1.643987e-001
    outer loop
      vertex   -2.340387e+002 2.378112e+002 5.000000e+000
      vertex   -2.373721e+002 2.178112e+002 5.000000e+000
      vertex   -2.340387e+002 1.978112e+002 5.000000e+000
    endloop
  endfacet
  facet normal 0.000000e+000 0.000000e+000 4.103647e-001
    outer loop
      vertex   -2.340387e+002 1.978112e+002 5.000000e+000
      vertex   -2.373721e+002 2.178112e+002 5.000000e+000
      vertex   -2.473721e+002 2.178112e+002 5.000000e+000
    endloop
  endfacet
  facet normal 0.000000e+000 0.000000e+000 8.320504e-001
    outer loop
      vertex   -2.340387e+002 1.978112e+002 5.000000e+000
      vertex   -2.473721e+002 2.178112e+002 5.000000e+000
      vertex   -2.873721e+002 1.978112e+002 5.000000e+000
    endloop
  endfacet
  facet normal 0.000000e+000 0.000000e+000 8.944272e-001
    outer loop
      vertex   -2.873721e+002 1.978112e+002 5.000000e+000
      vertex   -2.473721e+002 2.178112e+002 5.000000e+000
      vertex   -2.873721e+002 2.278112e+002 5.000000e+000
    endloop
  endfacet
  facet normal -0.000000e+000 0.000000e+000 2.425355e-001
    outer loop
      vertex   -2.873721e+002 2.278112e+002 5.000000e+000
      vertex   -2.473721e+002 2.178112e+002 5.000000e+000
      vertex   -2.473721e+002 2.278112e+002 5.000000e+000
    endloop
  endfacet
  facet normal 0.000000e+000 0.000000e+000 2.425355e-001
    outer loop
      vertex   -2.873721e+002 1.678112e+002 5.000000e+000
      vertex   -2.473721e+002 1.678112e+002 5.000000e+000
      vertex   -2.473721e+002 1.778112e+002 5.000000e+000
    endloop
  endfacet
  facet normal -0.000000e+000 -0.000000e+000 -1.000000e+000
    outer loop
      vertex   -1.273721e+002 1.678112e+002 0.000000e+000
      vertex   -1.273721e+002 1.578112e+002 0.000000e+000
      vertex   -1.573721e+002 1.678112e+002 0.000000e+000
    endloop
  endfacet
  facet normal 0.000000e+000 -0.000000e+000 -6.643638e-001
    outer loop
      vertex   -1.573721e+002 1.678112e+002 0.000000e+000
      vertex   -1.273721e+002 1.578112e+002 0.000000e+000
      vertex   -1.807054e+002 1.578112e+002 0.000000e+000
    endloop
  endfacet
  facet normal -0.000000e+000 0.000000e+000 -3.939191e-001
    outer loop
      vertex   -1.573721e+002 1.678112e+002 0.000000e+000
      vertex   -1.807054e+002 1.578112e+002 0.000000e+000
      vertex   -1.673721e+002 1.678112e+002 0.000000e+000
    endloop
  endfacet
  facet normal -0.000000e+000 0.000000e+000 -8.000002e-001
    outer loop
      vertex   -1.673721e+002 1.678112e+002 0.000000e+000
      vertex   -1.807054e+002 1.578112e+002 0.000000e+000
      vertex   -1.673721e+002 1.778112e+002 0.000000e+000
    endloop
  endfacet
  facet normal -0.000000e+000 0.000000e+000 -9.230772e-001
    outer loop
      vertex   -1.673721e+002 1.778112e+002 0.000000e+000
      vertex   -1.807054e+002 1.578112e+002 0.000000e+000
      vertex   -1.807054e+002 1.978112e+002 0.000000e+000
    endloop
  endfacet
  facet normal 0.000000e+000 0.000000e+000 -8.320501e-001
    outer loop
      vertex   -1.673721e+002 1.778112e+002 0.000000e+000
      vertex   -1.807054e+002 1.978112e+002 0.000000e+000
      vertex   -1.573721e+002 1.778112e+002 0.000000e+000
    endloop
  endfacet
  facet normal 0.000000e+000 0.000000e+000 -9.626509e-001
    outer loop
      vertex   -1.573721e+002 1.778112e+002 0.000000e+000
      vertex   -1.807054e+002 1.978112e+002 0.000000e+000
      vertex   -1.273721e+002 1.978112e+002 0.000000e+000
    endloop
  endfacet
  facet normal 0.000000e+000 0.000000e+000 -7.893524e-001
    outer loop
      vertex   -1.573721e+002 1.778112e+002 0.000000e+000
      vertex   -1.273721e+002 1.978112e+002 0.000000e+000
      vertex   -1.273721e+002 1.678112e+002 0.000000e+000
    endloop
  endfacet
  facet normal 0.000000e+000 0.000000e+000 -1.000000e+000
    outer loop
      vertex   -1.807054e+002 1.578112e+002 0.000000e+000
      vertex   -2.340387e+002 1.578112e+002 0.000000e+000
      vertex   -1.807054e+002 1.978112e+002 0.000000e+000
    endloop
  endfacet
  facet normal -0.000000e+000 0.000000e+000 -6.000000e-001
    outer loop
      vertex   -1.807054e+002 1.978112e+002 0.000000e+000
      vertex   -2.340387e+002 1.578112e+002 0.000000e+000
      vertex   -2.340387e+002 1.978112e+002 0.000000e+000
    endloop
  endfacet
  facet normal 0.000000e+000 0.000000e+000 -1.000000e+000
    outer loop
      vertex   -1.807054e+002 1.978112e+002 0.000000e+000
      vertex   -2.340387e+002 1.978112e+002 0.000000e+000
      vertex   -1.807054e+002 2.378112e+002 0.000000e+000
    endloop
  endfacet
  facet normal -0.000000e+000 0.000000e+000 -6.000000e-001
    outer loop
      vertex   -1.807054e+002 2.378112e+002 0.000000e+000
      vertex   -2.340387e+002 1.978112e+002 0.000000e+000
      vertex   -2.340387e+002 2.378112e+002 0.000000e+000
    endloop
  endfacet
  facet normal 0.000000e+000 -0.000000e+000 -1.643987e-001
    outer loop
      vertex   -2.340387e+002 2.378112e+002 0.000000e+000
      vertex   -2.340387e+002 1.978112e+002 0.000000e+000
      vertex   -2.373721e+002 2.178112e+002 0.000000e+000
    endloop
  endfacet
  facet normal 0.000000e+000 0.000000e+000 -1.559624e-001
    outer loop
      vertex   -2.340387e+002 2.378112e+002 0.000000e+000
      vertex   -2.373721e+002 2.178112e+002 0.000000e+000
      vertex   -2.373721e+002 2.278112e+002 0.000000e+000
    endloop
  endfacet
  facet normal 0.000000e+000 0.000000e+000 -2.425355e-001
    outer loop
      vertex   -2.873721e+002 1.578112e+002 0.000000e+000
      vertex   -2.473721e+002 1.678112e+002 0.000000e+000
      vertex   -2.340387e+002 1.578112e+002 0.000000e+000
    endloop
  endfacet
  facet normal 0.000000e+000 0.000000e+000 -5.692102e-001
    outer loop
      vertex   -2.340387e+002 1.578112e+002 0.000000e+000
      vertex   -2.473721e+002 1.678112e+002 0.000000e+000
      vertex   -2.373721e+002 1.678112e+002 0.000000e+000
    endloop
  endfacet
  facet normal 0.000000e+000 0.000000e+000 -1.559624e-001
    outer loop
      vertex   -2.340387e+002 1.578112e+002 0.000000e+000
      vertex   -2.373721e+002 1.678112e+002 0.000000e+000
      vertex   -2.373721e+002 1.778112e+002 0.000000e+000
    endloop
  endfacet
  facet normal 0.000000e+000 0.000000e+000 -9.701425e-001
    outer loop
      vertex   -2.873721e+002 1.578112e+002 0.000000e+000
      vertex   -2.873721e+002 1.678112e+002 0.000000e+000
      vertex   -2.473721e+002 1.678112e+002 0.000000e+000
    endloop
  endfacet
  facet normal 0.000000e+000 0.000000e+000 -1.643987e-001
    outer loop
      vertex   -2.340387e+002 1.578112e+002 0.000000e+000
      vertex   -2.373721e+002 1.778112e+002 0.000000e+000
      vertex   -2.340387e+002 1.978112e+002 0.000000e+000
    endloop
  endfacet
  facet normal 0.000000e+000 0.000000e+000 -4.103647e-001
    outer loop
      vertex   -2.340387e+002 1.978112e+002 0.000000e+000
      vertex   -2.373721e+002 1.778112e+002 0.000000e+000
      vertex   -2.473721e+002 1.778112e+002 0.000000e+000
    endloop
  endfacet
  facet normal -0.000000e+000 0.000000e+000 -8.320504e-001
    outer loop
      vertex   -2.340387e+002 1.978112e+002 0.000000e+000
      vertex   -2.473721e+002 1.778112e+002 0.000000e+000
      vertex   -2.873721e+002 1.978112e+002 0.000000e+000
    endloop
  endfacet
  facet normal 0.000000e+000 0.000000e+000 -8.944272e-001
    outer loop
      vertex   -2.873721e+002 1.978112e+002 0.000000e+000
      vertex   -2.473721e+002 1.778112e+002 0.000000e+000
      vertex   -2.873721e+002 1.678112e+002 0.000000e+000
    endloop
  endfacet
  facet normal 0.000000e+000 0.000000e+000 -2.425355e-001
    outer loop
      vertex   -2.873721e+002 1.678112e+002 0.000000e+000
      vertex   -2.473721e+002 1.778112e+002 0.000000e+000
      vertex   -2.473721e+002 1.678112e+002 0.000000e+000
    endloop
  endfacet
  facet normal 0.000000e+000 0.000000e+000 -8.320504e-001
    outer loop
      vertex   -2.340387e+002 1.978112e+002 0.000000e+000
      vertex   -2.873721e+002 1.978112e+002 0.000000e+000
      vertex   -2.473721e+002 2.178112e+002 0.000000e+000
    endloop
  endfacet
  facet normal -0.000000e+000 0.000000e+000 -6.507912e-001
    outer loop
      vertex   -2.473721e+002 2.178112e+002 0.000000e+000
      vertex   -2.873721e+002 1.978112e+002 0.000000e+000
      vertex   -2.873721e+002 2.278112e+002 0.000000e+000
    endloop
  endfacet
  facet normal 0.000000e+000 0.000000e+000 -9.701425e-001
    outer loop
      vertex   -2.473721e+002 2.178112e+002 0.000000e+000
      vertex   -2.873721e+002 2.278112e+002 0.000000e+000
      vertex   -2.473721e+002 2.278112e+002 0.000000e+000
    endloop
  endfacet
  facet normal 0.000000e+000 0.000000e+000 -8.320504e-001
    outer loop
      vertex   -2.473721e+002 2.178112e+002 0.000000e+000
      vertex   -2.373721e+002 2.178112e+002 0.000000e+000
      vertex   -2.340387e+002 1.978112e+002 0.000000e+000
    endloop
  endfacet
  facet normal 0.000000e+000 0.000000e+000 -9.486834e-001
    outer loop
      vertex   -2.373721e+002 2.278112e+002 0.000000e+000
      vertex   -2.473721e+002 2.278112e+002 0.000000e+000
      vertex   -2.340387e+002 2.378112e+002 0.000000e+000
    endloop
  endfacet
  facet normal -0.000000e+000 0.000000e+000 -6.000001e-001
    outer loop
      vertex   -2.340387e+002 2.378112e+002 0.000000e+000
      vertex   -2.473721e+002 2.278112e+002 0.000000e+000
      vertex   -2.873721e+002 2.378112e+002 0.000000e+000
    endloop
  endfacet
  facet normal 0.000000e+000 0.000000e+000 -9.701425e-001
    outer loop
      vertex   -2.873721e+002 2.378112e+002 0.000000e+000
      vertex   -2.473721e+002 2.278112e+002 0.000000e+000
      vertex   -2.873721e+002 2.278112e+002 0.000000e+000
    endloop
  endfacet
  facet normal -0.000000e+000 0.000000e+000 -3.162278e-001
    outer loop
      vertex   -1.273721e+002 2.378112e+002 0.000000e+000
      vertex   -1.573721e+002 2.278112e+002 0.000000e+000
      vertex   -1.807054e+002 2.378112e+002 0.000000e+000
    endloop
  endfacet
  facet normal 0.000000e+000 0.000000e+000 -2.363514e-001
    outer loop
      vertex   -1.807054e+002 2.378112e+002 0.000000e+000
      vertex   -1.573721e+002 2.278112e+002 0.000000e+000
      vertex   -1.673721e+002 2.278112e+002 0.000000e+000
    endloop
  endfacet
  facet normal 0.000000e+000 0.000000e+000 -3.328201e-001
    outer loop
      vertex   -1.807054e+002 2.378112e+002 0.000000e+000
      vertex   -1.673721e+002 2.278112e+002 0.000000e+000
      vertex   -1.673721e+002 2.178112e+002 0.000000e+000
    endloop
  endfacet
  facet normal 0.000000e+000 -0.000000e+000 -9.486833e-001
    outer loop
      vertex   -1.273721e+002 2.378112e+002 0.000000e+000
      vertex   -1.273721e+002 2.278112e+002 0.000000e+000
      vertex   -1.573721e+002 2.278112e+002 0.000000e+000
    endloop
  endfacet
  facet normal 0.000000e+000 0.000000e+000 -5.547005e-001
    outer loop
      vertex   -1.807054e+002 2.378112e+002 0.000000e+000
      vertex   -1.673721e+002 2.178112e+002 0.000000e+000
      vertex   -1.807054e+002 1.978112e+002 0.000000e+000
    endloop
  endfacet
  facet normal 0.000000e+000 0.000000e+000 -2.707455e-001
    outer loop
      vertex   -1.807054e+002 1.978112e+002 0.000000e+000
      vertex   -1.673721e+002 2.178112e+002 0.000000e+000
      vertex   -1.573721e+002 2.178112e+002 0.000000e+000
    endloop
  endfacet
  facet normal 0.000000e+000 0.000000e+000 -6.507912e-001
    outer loop
      vertex   -1.807054e+002 1.978112e+002 0.000000e+000
      vertex   -1.573721e+002 2.178112e+002 0.000000e+000
      vertex   -1.273721e+002 1.978112e+002 0.000000e+000
    endloop
  endfacet
  facet normal 0.000000e+000 0.000000e+000 -8.320502e-001
    outer loop
      vertex   -1.273721e+002 1.978112e+002 0.000000e+000
      vertex   -1.573721e+002 2.178112e+002 0.000000e+000
      vertex   -1.273721e+002 2.278112e+002 0.000000e+000
    endloop
  endfacet
  facet normal -0.000000e+000 0.000000e+000 -3.162278e-001
    outer loop
      vertex   -1.273721e+002 2.278112e+002 0.000000e+000
      vertex   -1.573721e+002 2.178112e+002 0.000000e+000
      vertex   -1.573721e+002 2.278112e+002 0.000000e+000
    endloop
  endfacet
  facet normal 0.000000e+000 0.000000e+000 -3.162278e-001
    outer loop
      vertex   -1.273721e+002 1.678112e+002 0.000000e+000
      vertex   -1.573721e+002 1.678112e+002 0.000000e+000
      vertex   -1.573721e+002 1.778112e+002 0.000000e+000
    endloop
  endfacet
endsolid
solid ascii
  facet normal -0.000000e+000 -1.000000e+000 -0.000000e+000
    outer loop
      vertex   -1.573721e+002 2.178112e+002 5.000000e+000
      vertex   -1.623721e+002 2.178112e+002 5.000000e+000
      vertex   -1.573721e+002 2.178112e+002 -9.714451e-016
    endloop
  endfacet
  facet normal 0.000000e+000 -7.071068e-001 0.000000e+000
    outer loop
      vertex   -1.573721e+002 2.178112e+002 -9.714451e-016
      vertex   -1.623721e+002 2.178112e+002 5.000000e+000
      vertex   -1.623721e+002 2.178112e+002 -9.714451e-016
    endloop
  endfacet
  facet normal 1.000000e+000 0.000000e+000 0.000000e+000
    outer loop
      vertex   -1.573721e+002 2.278112e+002 5.000000e+000
      vertex   -1.573721e+002 2.178112e+002 5.000000e+000
      vertex   -1.573721e+002 2.278112e+002 -9.714451e-016
    endloop
  endfacet
  facet normal 4.472136e-001 0.000000e+000 0.000000e+000
    outer loop
      vertex   -1.573721e+002 2.278112e+002 -9.714451e-016
      vertex   -1.573721e+002 2.178112e+002 5.000000e+000
      vertex   -1.573721e+002 2.178112e+002 -9.714451e-016
    endloop
  endfacet
  facet normal -0.000000e+000 1.000000e+000 0.000000e+000
    outer loop
      vertex   -1.623721e+002 2.278112e+002 5.000000e+000
      vertex   -1.573721e+002 2.278112e+002 5.000000e+000
      vertex   -1.623721e+002 2.278112e+002 -9.714451e-016
    endloop
  endfacet
  facet normal 0.000000e+000 7.071068e-001 0.000000e+000
    outer loop
      vertex   -1.623721e+002 2.278112e+002 -9.714451e-016
      vertex   -1.573721e+002 2.278112e+002 5.000000e+000
      vertex   -1.573721e+002 2.278112e+002 -9.714451e-016
    endloop
  endfacet
  facet normal -1.000000e+000 0.000000e+000 0.000000e+000
    outer loop
      vertex   -1.623721e+002 2.178112e+002 5.000000e+000
      vertex   -1.623721e+002 2.278112e+002 5.000000e+000
      vertex   -1.623721e+002 2.178112e+002 -9.714451e-016
    endloop
  endfacet
  facet normal -4.472136e-001 0.000000e+000 0.000000e+000
    outer loop
      vertex   -1.623721e+002 2.178112e+002 -9.714451e-016
      vertex   -1.623721e+002 2.278112e+002 5.000000e+000
      vertex   -1.623721e+002 2.278112e+002 -9.714451e-016
    endloop
  endfacet
  facet normal -0.000000e+000 0.000000e+000 1.000000e+000
    outer loop
      vertex   -1.623721e+002 2.278112e+002 5.000000e+000
      vertex   -1.623721e+002 2.178112e+002 5.000000e+000
      vertex   -1.573721e+002 2.278112e+002 5.000000e+000
    endloop
  endfacet
  facet normal 0.000000e+000 0.000000e+000 4.472136e-001
    outer loop
      vertex   -1.573721e+002 2.278112e+002 5.000000e+000
      vertex   -1.623721e+002 2.178112e+002 5.000000e+000
      vertex   -1.573721e+002 2.178112e+002 5.000000e+000
    endloop
  endfacet
  facet normal 0.000000e+000 0.000000e+000 -1.000000e+000
    outer loop
      vertex   -1.623721e+002 2.178112e+002 -9.714451e-016
      vertex   -1.623721e+002 2.278112e+002 -9.714451e-016
      vertex   -1.573721e+002 2.178112e+002 -9.714451e-016
    endloop
  endfacet
  facet normal 0.000000e+000 0.000000e+000 -4.472136e-001
    outer loop
      vertex   -1.573721e+002 2.178112e+002 -9.714451e-016
      vertex   -1.623721e+002 2.278112e+002 -9.714451e-016
      vertex   -1.573721e+002 2.278112e+002 -9.714451e-016
    endloop
  endfacet
endsolid
solid ascii
  facet normal -0.000000e+000 -1.000000e+000 -0.000000e+000
    outer loop
      vertex   -1.573721e+002 1.678112e+002 5.000000e+000
      vertex   -1.623721e+002 1.678112e+002 5.000000e+000
      vertex   -1.573721e+002 1.678112e+002 0.000000e+000
    endloop
  endfacet
  facet normal 0.000000e+000 -7.071068e-001 0.000000e+000
    outer loop
      vertex   -1.573721e+002 1.678112e+002 0.000000e+000
      vertex   -1.623721e+002 1.678112e+002 5.000000e+000
      vertex   -1.623721e+002 1.678112e+002 0.000000e+000
    endloop
  endfacet
  facet normal 1.000000e+000 0.000000e+000 0.000000e+000
    outer loop
      vertex   -1.573721e+002 1.778112e+002 5.000000e+000
      vertex   -1.573721e+002 1.678112e+002 5.000000e+000
      vertex   -1.573721e+002 1.778112e+002 0.000000e+000
    endloop
  endfacet
  facet normal 4.472136e-001 0.000000e+000 0.000000e+000
    outer loop
      vertex   -1.573721e+002 1.778112e+002 0.000000e+000
      vertex   -1.573721e+002 1.678112e+002 5.000000e+000
      vertex   -1.573721e+002 1.678112e+002 0.000000e+000
    endloop
  endfacet
  facet normal -0.000000e+000 1.000000e+000 0.000000e+000
    outer loop
      vertex   -1.623721e+002 1.778112e+002 5.000000e+000
      vertex   -1.573721e+002 1.778112e+002 5.000000e+000
      vertex   -1.623721e+002 1.778112e+002 0.000000e+000
    endloop
  endfacet
  facet normal 0.000000e+000 7.071068e-001 0.000000e+000
    outer loop
      vertex   -1.623721e+002 1.778112e+002 0.000000e+000
      vertex   -1.573721e+002 1.778112e+002 5.000000e+000
      vertex   -1.573721e+002 1.778112e+002 0.000000e+000
    endloop
  endfacet
  facet normal -1.000000e+000 0.000000e+000 0.000000e+000
    outer loop
      vertex   -1.623721e+002 1.678112e+002 5.000000e+000
      vertex   -1.623721e+002 1.778112e+002 5.000000e+000
      vertex   -1.623721e+002 1.678112e+002 0.000000e+000
    endloop
  endfacet
  facet normal -4.472136e-001 0.000000e+000 0.000000e+000
    outer loop
      vertex   -1.623721e+002 1.678112e+002 0.000000e+000
      vertex   -1.623721e+002 1.778112e+002 5.000000e+000
      vertex   -1.623721e+002 1.778112e+002 0.000000e+000
    endloop
  endfacet
  facet normal -0.000000e+000 0.000000e+000 1.000000e+000
    outer loop
      vertex   -1.623721e+002 1.778112e+002 5.000000e+000
      vertex   -1.623721e+002 1.678112e+002 5.000000e+000
      vertex   -1.573721e+002 1.778112e+002 5.000000e+000
    endloop
  endfacet
  facet normal 0.000000e+000 0.000000e+000 4.472136e-001
    outer loop
      vertex   -1.573721e+002 1.778112e+002 5.000000e+000
      vertex   -1.623721e+002 1.678112e+002 5.000000e+000
      vertex   -1.573721e+002 1.678112e+002 5.000000e+000
    endloop
  endfacet
  facet normal 0.000000e+000 0.000000e+000 -1.000000e+000
    outer loop
      vertex   -1.623721e+002 1.678112e+002 0.000000e+000
      vertex   -1.623721e+002 1.778112e+002 0.000000e+000
      vertex   -1.573721e+002 1.678112e+002 0.000000e+000
    endloop
  endfacet
  facet normal 0.000000e+000 0.000000e+000 -4.472136e-001
    outer loop
      vertex   -1.573721e+002 1.678112e+002 0.000000e+000
      vertex   -1.623721e+002 1.778112e+002 0.000000e+000
      vertex   -1.573721e+002 1.778112e+002 0.000000e+000
    endloop
  endfacet
endsolid
solid ascii
  facet normal -0.000000e+000 1.000000e+000 0.000000e+000
    outer loop
      vertex   -2.423721e+002 2.278112e+002 5.000000e+000
      vertex   -2.373721e+002 2.278112e+002 5.000000e+000
      vertex   -2.423721e+002 2.278112e+002 0.000000e+000
    endloop
  endfacet
  facet normal 0.000000e+000 7.071068e-001 0.000000e+000
    outer loop
      vertex   -2.423721e+002 2.278112e+002 0.000000e+000
      vertex   -2.373721e+002 2.278112e+002 5.000000e+000
      vertex   -2.373721e+002 2.278112e+002 0.000000e+000
    endloop
  endfacet
  facet normal -1.000000e+000 0.000000e+000 0.000000e+000
    outer loop
      vertex   -2.423721e+002 2.178112e+002 5.000000e+000
      vertex   -2.423721e+002 2.278112e+002 5.000000e+000
      vertex   -2.423721e+002 2.178112e+002 0.000000e+000
    endloop
  endfacet
  facet normal -4.472136e-001 0.000000e+000 0.000000e+000
    outer loop
      vertex   -2.423721e+002 2.178112e+002 0.000000e+000
      vertex   -2.423721e+002 2.278112e+002 5.000000e+000
      vertex   -2.423721e+002 2.278112e+002 0.000000e+000
    endloop
  endfacet
  facet normal -0.000000e+000 -1.000000e+000 -0.000000e+000
    outer loop
      vertex   -2.373721e+002 2.178112e+002 5.000000e+000
      vertex   -2.423721e+002 2.178112e+002 5.000000e+000
      vertex   -2.373721e+002 2.178112e+002 0.000000e+000
    endloop
  endfacet
  facet normal 0.000000e+000 -7.071068e-001 0.000000e+000
    outer loop
      vertex   -2.373721e+002 2.178112e+002 0.000000e+000
      vertex   -2.423721e+002 2.178112e+002 5.000000e+000
      vertex   -2.423721e+002 2.178112e+002 0.000000e+000
    endloop
  endfacet
  facet normal 1.000000e+000 0.000000e+000 0.000000e+000
    outer loop
      vertex   -2.373721e+002 2.278112e+002 5.000000e+000
      vertex   -2.373721e+002 2.178112e+002 5.000000e+000
      vertex   -2.373721e+002 2.278112e+002 0.000000e+000
    endloop
  endfacet
  facet normal 4.472136e-001 0.000000e+000 0.000000e+000
    outer loop
      vertex   -2.373721e+002 2.278112e+002 0.000000e+000
      vertex   -2.373721e+002 2.178112e+002 5.000000e+000
      vertex   -2.373721e+002 2.178112e+002 0.000000e+000
    endloop
  endfacet
  facet normal 0.000000e+000 0.000000e+000 1.000000e+000
    outer loop
      vertex   -2.373721e+002 2.278112e+002 5.000000e+000
      vertex   -2.423721e+002 2.278112e+002 5.000000e+000
      vertex   -2.373721e+002 2.178112e+002 5.000000e+000
    endloop
  endfacet
  facet normal 0.000000e+000 0.000000e+000 8.944272e-001
    outer loop
      vertex   -2.373721e+002 2.178112e+002 5.000000e+000
      vertex   -2.423721e+002 2.278112e+002 5.000000e+000
      vertex   -2.423721e+002 2.178112e+002 5.000000e+000
    endloop
  endfacet
  facet normal 0.000000e+000 0.000000e+000 -1.000000e+000
    outer loop
      vertex   -2.373721e+002 2.178112e+002 0.000000e+000
      vertex   -2.423721e+002 2.178112e+002 0.000000e+000
      vertex   -2.373721e+002 2.278112e+002 0.000000e+000
    endloop
  endfacet
  facet normal -0.000000e+000 0.000000e+000 -8.944272e-001
    outer loop
      vertex   -2.373721e+002 2.278112e+002 0.000000e+000
      vertex   -2.423721e+002 2.178112e+002 0.000000e+000
      vertex   -2.423721e+002 2.278112e+002 0.000000e+000
    endloop
  endfacet
endsolid
solid ascii
  facet normal -0.000000e+000 -1.000000e+000 -0.000000e+000
    outer loop
      vertex   -2.373721e+002 1.678112e+002 5.000000e+000
      vertex   -2.423721e+002 1.678112e+002 5.000000e+000
      vertex   -2.373721e+002 1.678112e+002 0.000000e+000
    endloop
  endfacet
  facet normal 0.000000e+000 -7.071068e-001 0.000000e+000
    outer loop
      vertex   -2.373721e+002 1.678112e+002 0.000000e+000
      vertex   -2.423721e+002 1.678112e+002 5.000000e+000
      vertex   -2.423721e+002 1.678112e+002 0.000000e+000
    endloop
  endfacet
  facet normal 1.000000e+000 0.000000e+000 0.000000e+000
    outer loop
      vertex   -2.373721e+002 1.778112e+002 5.000000e+000
      vertex   -2.373721e+002 1.678112e+002 5.000000e+000
      vertex   -2.373721e+002 1.778112e+002 0.000000e+000
    endloop
  endfacet
  facet normal 4.472136e-001 0.000000e+000 0.000000e+000
    outer loop
      vertex   -2.373721e+002 1.778112e+002 0.000000e+000
      vertex   -2.373721e+002 1.678112e+002 5.000000e+000
      vertex   -2.373721e+002 1.678112e+002 0.000000e+000
    endloop
  endfacet
  facet normal -0.000000e+000 1.000000e+000 0.000000e+000
    outer loop
      vertex   -2.423721e+002 1.778112e+002 5.000000e+000
      vertex   -2.373721e+002 1.778112e+002 5.000000e+000
      vertex   -2.423721e+002 1.778112e+002 0.000000e+000
    endloop
  endfacet
  facet normal 0.000000e+000 7.071068e-001 0.000000e+000
    outer loop
      vertex   -2.423721e+002 1.778112e+002 0.000000e+000
      vertex   -2.373721e+002 1.778112e+002 5.000000e+000
      vertex   -2.373721e+002 1.778112e+002 0.000000e+000
    endloop
  endfacet
  facet normal -1.000000e+000 0.000000e+000 0.000000e+000
    outer loop
      vertex   -2.423721e+002 1.678112e+002 5.000000e+000
      vertex   -2.423721e+002 1.778112e+002 5.000000e+000
      vertex   -2.423721e+002 1.678112e+002 0.000000e+000
    endloop
  endfacet
  facet normal -4.472136e-001 0.000000e+000 0.000000e+000
    outer loop
      vertex   -2.423721e+002 1.678112e+002 0.000000e+000
      vertex   -2.423721e+002 1.778112e+002 5.000000e+000
      vertex   -2.423721e+002 1.778112e+002 0.000000e+000
    endloop
  endfacet
  facet normal 0.000000e+000 0.000000e+000 1.000000e+000
    outer loop
      vertex   -2.423721e+002 1.678112e+002 5.000000e+000
      vertex   -2.373721e+002 1.678112e+002 5.000000e+000
      vertex   -2.423721e+002 1.778112e+002 5.000000e+000
    endloop
  endfacet
  facet normal -0.000000e+000 0.000000e+000 8.944272e-001
    outer loop
      vertex   -2.423721e+002 1.778112e+002 5.000000e+000
      vertex   -2.373721e+002 1.678112e+002 5.000000e+000
      vertex   -2.373721e+002 1.778112e+002 5.000000e+000
    endloop
  endfacet
  facet normal 0.000000e+000 0.000000e+000 -1.000000e+000
    outer loop
      vertex   -2.423721e+002 1.778112e+002 0.000000e+000
      vertex   -2.373721e+002 1.778112e+002 0.000000e+000
      vertex   -2.423721e+002 1.678112e+002 0.000000e+000
    endloop
  endfacet
  facet normal 0.000000e+000 0.000000e+000 -8.944272e-001
    outer loop
      vertex   -2.423721e+002 1.678112e+002 0.000000e+000
      vertex   -2.373721e+002 1.778112e+002 0.000000e+000
      vertex   -2.373721e+002 1.678112e+002 0.000000e+000
    endloop
  endfacet
endsolid
