solid ascii
  facet normal -1.000000e+000 -0.000000e+000 -0.000000e+000
    outer loop
      vertex   -2.500000e+002 1.550000e+002 5.000000e+000
      vertex   -2.500000e+002 1.550000e+002 0.000000e+000
      vertex   -2.500000e+002 1.116667e+002 5.000000e+000
    endloop
  endfacet
  facet normal -9.934089e-001 0.000000e+000 0.000000e+000
    outer loop
      vertex   -2.500000e+002 1.116667e+002 5.000000e+000
      vertex   -2.500000e+002 1.550000e+002 0.000000e+000
      vertex   -2.500000e+002 1.116667e+002 0.000000e+000
    endloop
  endfacet
  facet normal -1.000000e+000 -0.000000e+000 -0.000000e+000
    outer loop
      vertex   -2.500000e+002 1.116667e+002 5.000000e+000
      vertex   -2.500000e+002 1.116667e+002 0.000000e+000
      vertex   -2.500000e+002 6.833334e+001 5.000000e+000
    endloop
  endfacet
  facet normal -9.934089e-001 0.000000e+000 0.000000e+000
    outer loop
      vertex   -2.500000e+002 6.833334e+001 5.000000e+000
      vertex   -2.500000e+002 1.116667e+002 0.000000e+000
      vertex   -2.500000e+002 6.833334e+001 0.000000e+000
    endloop
  endfacet
  facet normal -1.000000e+000 -0.000000e+000 -0.000000e+000
    outer loop
      vertex   -2.500000e+002 6.833334e+001 5.000000e+000
      vertex   -2.500000e+002 6.833334e+001 0.000000e+000
      vertex   -2.500000e+002 2.500000e+001 5.000000e+000
    endloop
  endfacet
  facet normal -9.934089e-001 0.000000e+000 0.000000e+000
    outer loop
      vertex   -2.500000e+002 2.500000e+001 5.000000e+000
      vertex   -2.500000e+002 6.833334e+001 0.000000e+000
      vertex   -2.500000e+002 2.500000e+001 0.000000e+000
    endloop
  endfacet
  facet normal 1.842885e-001 9.828722e-001 0.000000e+000
    outer loop
      vertex   -9.000000e+001 1.250000e+002 5.000000e+000
      vertex   -9.000000e+001 1.250000e+002 0.000000e+000
      vertex   -1.433333e+002 1.350000e+002 5.000000e+000
    endloop
  endfacet
  facet normal 1.835111e-001 9.787260e-001 0.000000e+000
    outer loop
      vertex   -1.433333e+002 1.350000e+002 5.000000e+000
      vertex   -9.000000e+001 1.250000e+002 0.000000e+000
      vertex   -1.433333e+002 1.350000e+002 0.000000e+000
    endloop
  endfacet
  facet normal 1.842885e-001 9.828722e-001 0.000000e+000
    outer loop
      vertex   -1.433333e+002 1.350000e+002 5.000000e+000
      vertex   -1.433333e+002 1.350000e+002 0.000000e+000
      vertex   -1.966667e+002 1.450000e+002 5.000000e+000
    endloop
  endfacet
  facet normal 1.835111e-001 9.787260e-001 0.000000e+000
    outer loop
      vertex   -1.966667e+002 1.450000e+002 5.000000e+000
      vertex   -1.433333e+002 1.350000e+002 0.000000e+000
      vertex   -1.966667e+002 1.450000e+002 0.000000e+000
    endloop
  endfacet
  facet normal 1.842885e-001 9.828722e-001 0.000000e+000
    outer loop
      vertex   -1.966667e+002 1.450000e+002 5.000000e+000
      vertex   -1.966667e+002 1.450000e+002 0.000000e+000
      vertex   -2.500000e+002 1.550000e+002 5.000000e+000
    endloop
  endfacet
  facet normal 1.835111e-001 9.787260e-001 0.000000e+000
    outer loop
      vertex   -2.500000e+002 1.550000e+002 5.000000e+000
      vertex   -1.966667e+002 1.450000e+002 0.000000e+000
      vertex   -2.500000e+002 1.550000e+002 0.000000e+000
    endloop
  endfacet
  facet normal 1.000000e+000 -0.000000e+000 0.000000e+000
    outer loop
      vertex   -9.000000e+001 2.500000e+001 5.000000e+000
      vertex   -9.000000e+001 2.500000e+001 0.000000e+000
      vertex   -9.000000e+001 7.500000e+001 5.000000e+000
    endloop
  endfacet
  facet normal 9.950372e-001 0.000000e+000 0.000000e+000
    outer loop
      vertex   -9.000000e+001 7.500000e+001 5.000000e+000
      vertex   -9.000000e+001 2.500000e+001 0.000000e+000
      vertex   -9.000000e+001 7.500000e+001 0.000000e+000
    endloop
  endfacet
  facet normal 1.000000e+000 -0.000000e+000 0.000000e+000
    outer loop
      vertex   -9.000000e+001 7.500000e+001 5.000000e+000
      vertex   -9.000000e+001 7.500000e+001 0.000000e+000
      vertex   -9.000000e+001 1.250000e+002 5.000000e+000
    endloop
  endfacet
  facet normal 9.950372e-001 0.000000e+000 0.000000e+000
    outer loop
      vertex   -9.000000e+001 1.250000e+002 5.000000e+000
      vertex   -9.000000e+001 7.500000e+001 0.000000e+000
      vertex   -9.000000e+001 1.250000e+002 0.000000e+000
    endloop
  endfacet
  facet normal 0.000000e+000 -1.000000e+000 0.000000e+000
    outer loop
      vertex   -2.500000e+002 2.500000e+001 5.000000e+000
      vertex   -2.500000e+002 2.500000e+001 0.000000e+000
      vertex   -1.966667e+002 2.500000e+001 5.000000e+000
    endloop
  endfacet
  facet normal 0.000000e+000 -9.956342e-001 -0.000000e+000
    outer loop
      vertex   -1.966667e+002 2.500000e+001 5.000000e+000
      vertex   -2.500000e+002 2.500000e+001 0.000000e+000
      vertex   -1.966667e+002 2.500000e+001 0.000000e+000
    endloop
  endfacet
  facet normal 0.000000e+000 -1.000000e+000 0.000000e+000
    outer loop
      vertex   -1.966667e+002 2.500000e+001 5.000000e+000
      vertex   -1.966667e+002 2.500000e+001 0.000000e+000
      vertex   -1.433333e+002 2.500000e+001 5.000000e+000
    endloop
  endfacet
  facet normal 0.000000e+000 -9.956342e-001 -0.000000e+000
    outer loop
      vertex   -1.433333e+002 2.500000e+001 5.000000e+000
      vertex   -1.966667e+002 2.500000e+001 0.000000e+000
      vertex   -1.433333e+002 2.500000e+001 0.000000e+000
    endloop
  endfacet
  facet normal 0.000000e+000 -1.000000e+000 0.000000e+000
    outer loop
      vertex   -1.433333e+002 2.500000e+001 5.000000e+000
      vertex   -1.433333e+002 2.500000e+001 0.000000e+000
      vertex   -9.000000e+001 2.500000e+001 5.000000e+000
    endloop
  endfacet
  facet normal 0.000000e+000 -9.956342e-001 -0.000000e+000
    outer loop
      vertex   -9.000000e+001 2.500000e+001 5.000000e+000
      vertex   -1.433333e+002 2.500000e+001 0.000000e+000
      vertex   -9.000000e+001 2.500000e+001 0.000000e+000
    endloop
  endfacet
  facet normal 0.000000e+000 0.000000e+000 1.000000e+000
    outer loop
      vertex   -2.500000e+002 2.500000e+001 5.000000e+000
      vertex   -1.966667e+002 2.500000e+001 5.000000e+000
      vertex   -2.500000e+002 6.833334e+001 5.000000e+000
    endloop
  endfacet
  facet normal -0.000000e+000 0.000000e+000 6.305927e-001
    outer loop
      vertex   -2.500000e+002 6.833334e+001 5.000000e+000
      vertex   -1.966667e+002 2.500000e+001 5.000000e+000
      vertex   -1.966667e+002 6.833334e+001 5.000000e+000
    endloop
  endfacet
  facet normal 0.000000e+000 0.000000e+000 1.000000e+000
    outer loop
      vertex   -2.500000e+002 6.833334e+001 5.000000e+000
      vertex   -1.966667e+002 6.833334e+001 5.000000e+000
      vertex   -2.500000e+002 1.116667e+002 5.000000e+000
    endloop
  endfacet
  facet normal -0.000000e+000 0.000000e+000 6.305926e-001
    outer loop
      vertex   -2.500000e+002 1.116667e+002 5.000000e+000
      vertex   -1.966667e+002 6.833334e+001 5.000000e+000
      vertex   -1.966667e+002 1.116667e+002 5.000000e+000
    endloop
  endfacet
  facet normal 0.000000e+000 0.000000e+000 5.299990e-001
    outer loop
      vertex   -2.500000e+002 1.116667e+002 5.000000e+000
      vertex   -1.966667e+002 1.116667e+002 5.000000e+000
      vertex   -1.966667e+002 1.450000e+002 5.000000e+000
    endloop
  endfacet
  facet normal 0.000000e+000 0.000000e+000 9.828722e-001
    outer loop
      vertex   -1.966667e+002 1.450000e+002 5.000000e+000
      vertex   -1.966667e+002 1.116667e+002 5.000000e+000
      vertex   -1.433333e+002 1.350000e+002 5.000000e+000
    endloop
  endfacet
  facet normal 0.000000e+000 0.000000e+000 9.161574e-001
    outer loop
      vertex   -1.433333e+002 1.350000e+002 5.000000e+000
      vertex   -1.966667e+002 1.116667e+002 5.000000e+000
      vertex   -1.433333e+002 1.116667e+002 5.000000e+000
    endloop
  endfacet
  facet normal 0.000000e+000 0.000000e+000 9.828722e-001
    outer loop
      vertex   -1.433333e+002 1.350000e+002 5.000000e+000
      vertex   -1.433333e+002 1.116667e+002 5.000000e+000
      vertex   -9.000000e+001 1.250000e+002 5.000000e+000
    endloop
  endfacet
  facet normal 0.000000e+000 0.000000e+000 9.701425e-001
    outer loop
      vertex   -9.000000e+001 1.250000e+002 5.000000e+000
      vertex   -1.433333e+002 1.116667e+002 5.000000e+000
      vertex   -9.000000e+001 7.500000e+001 5.000000e+000
    endloop
  endfacet
  facet normal 0.000000e+000 0.000000e+000 6.643638e-001
    outer loop
      vertex   -9.000000e+001 7.500000e+001 5.000000e+000
      vertex   -1.433333e+002 1.116667e+002 5.000000e+000
      vertex   -1.433333e+002 6.833334e+001 5.000000e+000
    endloop
  endfacet
  facet normal 0.000000e+000 0.000000e+000 9.922779e-001
    outer loop
      vertex   -9.000000e+001 7.500000e+001 5.000000e+000
      vertex   -1.433333e+002 6.833334e+001 5.000000e+000
      vertex   -9.000000e+001 2.500000e+001 5.000000e+000
    endloop
  endfacet
  facet normal 0.000000e+000 0.000000e+000 6.305927e-001
    outer loop
      vertex   -9.000000e+001 2.500000e+001 5.000000e+000
      vertex   -1.433333e+002 6.833334e+001 5.000000e+000
      vertex   -1.433333e+002 2.500000e+001 5.000000e+000
    endloop
  endfacet
  facet normal 0.000000e+000 -0.000000e+000 7.761140e-001
    outer loop
      vertex   -1.433333e+002 2.500000e+001 5.000000e+000
      vertex   -1.433333e+002 6.833334e+001 5.000000e+000
      vertex   -1.966667e+002 6.833334e+001 5.000000e+000
    endloop
  endfacet
  facet normal 0.000000e+000 0.000000e+000 6.305926e-001
    outer loop
      vertex   -1.433333e+002 2.500000e+001 5.000000e+000
      vertex   -1.966667e+002 6.833334e+001 5.000000e+000
      vertex   -1.966667e+002 2.500000e+001 5.000000e+000
    endloop
  endfacet
  facet normal 0.000000e+000 0.000000e+000 6.771976e-001
    outer loop
      vertex   -1.966667e+002 1.450000e+002 5.000000e+000
      vertex   -2.500000e+002 1.550000e+002 5.000000e+000
      vertex   -2.500000e+002 1.116667e+002 5.000000e+000
    endloop
  endfacet
  facet normal 0.000000e+000 0.000000e+000 7.761141e-001
    outer loop
      vertex   -1.966667e+002 1.116667e+002 5.000000e+000
      vertex   -1.966667e+002 6.833334e+001 5.000000e+000
      vertex   -1.433333e+002 6.833334e+001 5.000000e+000
    endloop
  endfacet
  facet normal 0.000000e+000 0.000000e+000 1.000000e+000
    outer loop
      vertex   -1.433333e+002 1.116667e+002 5.000000e+000
      vertex   -1.966667e+002 1.116667e+002 5.000000e+000
      vertex   -1.433333e+002 6.833334e+001 5.000000e+000
    endloop
  endfacet
  facet normal 0.000000e+000 -0.000000e+000 -9.922779e-001
    outer loop
      vertex   -9.000000e+001 7.500000e+001 0.000000e+000
      vertex   -9.000000e+001 2.500000e+001 0.000000e+000
      vertex   -1.433333e+002 6.833334e+001 0.000000e+000
    endloop
  endfacet
  facet normal 0.000000e+000 0.000000e+000 -7.761139e-001
    outer loop
      vertex   -1.433333e+002 6.833334e+001 0.000000e+000
      vertex   -9.000000e+001 2.500000e+001 0.000000e+000
      vertex   -1.433333e+002 2.500000e+001 0.000000e+000
    endloop
  endfacet
  facet normal 0.000000e+000 -0.000000e+000 -7.761140e-001
    outer loop
      vertex   -1.433333e+002 6.833334e+001 0.000000e+000
      vertex   -1.433333e+002 2.500000e+001 0.000000e+000
      vertex   -1.966667e+002 2.500000e+001 0.000000e+000
    endloop
  endfacet
  facet normal -0.000000e+000 0.000000e+000 -6.305926e-001
    outer loop
      vertex   -1.433333e+002 6.833334e+001 0.000000e+000
      vertex   -1.966667e+002 2.500000e+001 0.000000e+000
      vertex   -1.966667e+002 6.833334e+001 0.000000e+000
    endloop
  endfacet
  facet normal 0.000000e+000 -0.000000e+000 -7.761139e-001
    outer loop
      vertex   -1.966667e+002 6.833334e+001 0.000000e+000
      vertex   -1.966667e+002 2.500000e+001 0.000000e+000
      vertex   -2.500000e+002 2.500000e+001 0.000000e+000
    endloop
  endfacet
  facet normal -0.000000e+000 0.000000e+000 -6.305927e-001
    outer loop
      vertex   -1.966667e+002 6.833334e+001 0.000000e+000
      vertex   -2.500000e+002 2.500000e+001 0.000000e+000
      vertex   -2.500000e+002 6.833334e+001 0.000000e+000
    endloop
  endfacet
  facet normal 0.000000e+000 0.000000e+000 -1.000000e+000
    outer loop
      vertex   -1.966667e+002 6.833334e+001 0.000000e+000
      vertex   -2.500000e+002 6.833334e+001 0.000000e+000
      vertex   -1.966667e+002 1.116667e+002 0.000000e+000
    endloop
  endfacet
  facet normal -0.000000e+000 0.000000e+000 -6.305926e-001
    outer loop
      vertex   -1.966667e+002 1.116667e+002 0.000000e+000
      vertex   -2.500000e+002 6.833334e+001 0.000000e+000
      vertex   -2.500000e+002 1.116667e+002 0.000000e+000
    endloop
  endfacet
  facet normal 0.000000e+000 0.000000e+000 -1.000000e+000
    outer loop
      vertex   -1.966667e+002 1.116667e+002 0.000000e+000
      vertex   -2.500000e+002 1.116667e+002 0.000000e+000
      vertex   -1.966667e+002 1.450000e+002 0.000000e+000
    endloop
  endfacet
  facet normal -0.000000e+000 0.000000e+000 -6.771976e-001
    outer loop
      vertex   -1.966667e+002 1.450000e+002 0.000000e+000
      vertex   -2.500000e+002 1.116667e+002 0.000000e+000
      vertex   -2.500000e+002 1.550000e+002 0.000000e+000
    endloop
  endfacet
  facet normal 0.000000e+000 0.000000e+000 -9.828722e-001
    outer loop
      vertex   -1.966667e+002 1.450000e+002 0.000000e+000
      vertex   -1.433333e+002 1.350000e+002 0.000000e+000
      vertex   -1.966667e+002 1.116667e+002 0.000000e+000
    endloop
  endfacet
  facet normal 0.000000e+000 0.000000e+000 -4.008188e-001
    outer loop
      vertex   -1.966667e+002 1.116667e+002 0.000000e+000
      vertex   -1.433333e+002 1.350000e+002 0.000000e+000
      vertex   -1.433333e+002 1.116667e+002 0.000000e+000
    endloop
  endfacet
  facet normal 0.000000e+000 0.000000e+000 -1.000000e+000
    outer loop
      vertex   -1.966667e+002 1.116667e+002 0.000000e+000
      vertex   -1.433333e+002 1.116667e+002 0.000000e+000
      vertex   -1.966667e+002 6.833334e+001 0.000000e+000
    endloop
  endfacet
  facet normal 0.000000e+000 0.000000e+000 -6.305925e-001
    outer loop
      vertex   -1.966667e+002 6.833334e+001 0.000000e+000
      vertex   -1.433333e+002 1.116667e+002 0.000000e+000
      vertex   -1.433333e+002 6.833334e+001 0.000000e+000
    endloop
  endfacet
  facet normal 0.000000e+000 0.000000e+000 -9.828722e-001
    outer loop
      vertex   -1.433333e+002 1.350000e+002 0.000000e+000
      vertex   -9.000000e+001 1.250000e+002 0.000000e+000
      vertex   -1.433333e+002 1.116667e+002 0.000000e+000
    endloop
  endfacet
  facet normal 0.000000e+000 0.000000e+000 -7.494733e-001
    outer loop
      vertex   -1.433333e+002 1.116667e+002 0.000000e+000
      vertex   -9.000000e+001 1.250000e+002 0.000000e+000
      vertex   -9.000000e+001 7.500000e+001 0.000000e+000
    endloop
  endfacet
  facet normal 0.000000e+000 0.000000e+000 -8.240419e-001
    outer loop
      vertex   -1.433333e+002 1.116667e+002 0.000000e+000
      vertex   -9.000000e+001 7.500000e+001 0.000000e+000
      vertex   -1.433333e+002 6.833334e+001 0.000000e+000
    endloop
  endfacet
endsolid
