solid ascii
  facet normal 1.000000e+000 -0.000000e+000 0.000000e+000
    outer loop
      vertex   -5.618282e+001 8.322618e+001 5.000000e+000
      vertex   -5.618282e+001 8.322618e+001 0.000000e+000
      vertex   -5.618282e+001 1.232262e+002 5.000000e+000
    endloop
  endfacet
  facet normal 9.922779e-001 0.000000e+000 0.000000e+000
    outer loop
      vertex   -5.618282e+001 1.232262e+002 5.000000e+000
      vertex   -5.618282e+001 8.322618e+001 0.000000e+000
      vertex   -5.618282e+001 1.232262e+002 0.000000e+000
    endloop
  endfacet
  facet normal 1.000000e+000 -0.000000e+000 0.000000e+000
    outer loop
      vertex   -5.618282e+001 1.232262e+002 5.000000e+000
      vertex   -5.618282e+001 1.232262e+002 0.000000e+000
      vertex   -5.618282e+001 1.632262e+002 5.000000e+000
    endloop
  endfacet
  facet normal 9.922779e-001 0.000000e+000 0.000000e+000
    outer loop
      vertex   -5.618282e+001 1.632262e+002 5.000000e+000
      vertex   -5.618282e+001 1.232262e+002 0.000000e+000
      vertex   -5.618282e+001 1.632262e+002 0.000000e+000
    endloop
  endfacet
  facet normal 0.000000e+000 -1.000000e+000 0.000000e+000
    outer loop
      vertex   -1.861828e+002 8.322618e+001 5.000000e+000
      vertex   -1.861828e+002 8.322618e+001 0.000000e+000
      vertex   -1.428495e+002 8.322618e+001 5.000000e+000
    endloop
  endfacet
  facet normal 0.000000e+000 -9.934089e-001 -0.000000e+000
    outer loop
      vertex   -1.428495e+002 8.322618e+001 5.000000e+000
      vertex   -1.861828e+002 8.322618e+001 0.000000e+000
      vertex   -1.428495e+002 8.322618e+001 0.000000e+000
    endloop
  endfacet
  facet normal 0.000000e+000 -1.000000e+000 0.000000e+000
    outer loop
      vertex   -1.428495e+002 8.322618e+001 5.000000e+000
      vertex   -1.428495e+002 8.322618e+001 0.000000e+000
      vertex   -9.951615e+001 8.322618e+001 5.000000e+000
    endloop
  endfacet
  facet normal 0.000000e+000 -9.934089e-001 -0.000000e+000
    outer loop
      vertex   -9.951615e+001 8.322618e+001 5.000000e+000
      vertex   -1.428495e+002 8.322618e+001 0.000000e+000
      vertex   -9.951615e+001 8.322618e+001 0.000000e+000
    endloop
  endfacet
  facet normal 0.000000e+000 -1.000000e+000 0.000000e+000
    outer loop
      vertex   -9.951615e+001 8.322618e+001 5.000000e+000
      vertex   -9.951615e+001 8.322618e+001 0.000000e+000
      vertex   -5.618282e+001 8.322618e+001 5.000000e+000
    endloop
  endfacet
  facet normal 0.000000e+000 -9.934089e-001 -0.000000e+000
    outer loop
      vertex   -5.618282e+001 8.322618e+001 5.000000e+000
      vertex   -9.951615e+001 8.322618e+001 0.000000e+000
      vertex   -5.618282e+001 8.322618e+001 0.000000e+000
    endloop
  endfacet
  facet normal -1.000000e+000 -0.000000e+000 -0.000000e+000
    outer loop
      vertex   -1.861828e+002 1.632262e+002 5.000000e+000
      vertex   -1.861828e+002 1.632262e+002 0.000000e+000
      vertex   -1.861828e+002 1.232262e+002 5.000000e+000
    endloop
  endfacet
  facet normal -9.922779e-001 0.000000e+000 0.000000e+000
    outer loop
      vertex   -1.861828e+002 1.232262e+002 5.000000e+000
      vertex   -1.861828e+002 1.632262e+002 0.000000e+000
      vertex   -1.861828e+002 1.232262e+002 0.000000e+000
    endloop
  endfacet
  facet normal -1.000000e+000 -0.000000e+000 -0.000000e+000
    outer loop
      vertex   -1.861828e+002 1.232262e+002 5.000000e+000
      vertex   -1.861828e+002 1.232262e+002 0.000000e+000
      vertex   -1.861828e+002 8.322618e+001 5.000000e+000
    endloop
  endfacet
  facet normal -9.922779e-001 0.000000e+000 0.000000e+000
    outer loop
      vertex   -1.861828e+002 8.322618e+001 5.000000e+000
      vertex   -1.861828e+002 1.232262e+002 0.000000e+000
      vertex   -1.861828e+002 8.322618e+001 0.000000e+000
    endloop
  endfacet
  facet normal 0.000000e+000 1.000000e+000 0.000000e+000
    outer loop
      vertex   -5.618282e+001 1.632262e+002 5.000000e+000
      vertex   -5.618282e+001 1.632262e+002 0.000000e+000
      vertex   -9.951615e+001 1.632262e+002 5.000000e+000
    endloop
  endfacet
  facet normal 0.000000e+000 9.934089e-001 0.000000e+000
    outer loop
      vertex   -9.951615e+001 1.632262e+002 5.000000e+000
      vertex   -5.618282e+001 1.632262e+002 0.000000e+000
      vertex   -9.951615e+001 1.632262e+002 0.000000e+000
    endloop
  endfacet
  facet normal 0.000000e+000 1.000000e+000 0.000000e+000
    outer loop
      vertex   -9.951615e+001 1.632262e+002 5.000000e+000
      vertex   -9.951615e+001 1.632262e+002 0.000000e+000
      vertex   -1.428495e+002 1.632262e+002 5.000000e+000
    endloop
  endfacet
  facet normal 0.000000e+000 9.934089e-001 0.000000e+000
    outer loop
      vertex   -1.428495e+002 1.632262e+002 5.000000e+000
      vertex   -9.951615e+001 1.632262e+002 0.000000e+000
      vertex   -1.428495e+002 1.632262e+002 0.000000e+000
    endloop
  endfacet
  facet normal 0.000000e+000 1.000000e+000 0.000000e+000
    outer loop
      vertex   -1.428495e+002 1.632262e+002 5.000000e+000
      vertex   -1.428495e+002 1.632262e+002 0.000000e+000
      vertex   -1.861828e+002 1.632262e+002 5.000000e+000
    endloop
  endfacet
  facet normal 0.000000e+000 9.934089e-001 0.000000e+000
    outer loop
      vertex   -1.861828e+002 1.632262e+002 5.000000e+000
      vertex   -1.428495e+002 1.632262e+002 0.000000e+000
      vertex   -1.861828e+002 1.632262e+002 0.000000e+000
    endloop
  endfacet
  facet normal 0.000000e+000 0.000000e+000 1.000000e+000
    outer loop
      vertex   -5.618282e+001 1.632262e+002 5.000000e+000
      vertex   -9.951615e+001 1.632262e+002 5.000000e+000
      vertex   -5.618282e+001 1.232262e+002 5.000000e+000
    endloop
  endfacet
  facet normal 0.000000e+000 0.000000e+000 6.782801e-001
    outer loop
      vertex   -5.618282e+001 1.232262e+002 5.000000e+000
      vertex   -9.951615e+001 1.632262e+002 5.000000e+000
      vertex   -9.951615e+001 1.232262e+002 5.000000e+000
    endloop
  endfacet
  facet normal 0.000000e+000 0.000000e+000 1.000000e+000
    outer loop
      vertex   -5.618282e+001 1.232262e+002 5.000000e+000
      vertex   -9.951615e+001 1.232262e+002 5.000000e+000
      vertex   -5.618282e+001 8.322618e+001 5.000000e+000
    endloop
  endfacet
  facet normal 0.000000e+000 0.000000e+000 6.782801e-001
    outer loop
      vertex   -5.618282e+001 8.322618e+001 5.000000e+000
      vertex   -9.951615e+001 1.232262e+002 5.000000e+000
      vertex   -9.951615e+001 8.322618e+001 5.000000e+000
    endloop
  endfacet
  facet normal 0.000000e+000 -0.000000e+000 7.348034e-001
    outer loop
      vertex   -9.951615e+001 8.322618e+001 5.000000e+000
      vertex   -9.951615e+001 1.232262e+002 5.000000e+000
      vertex   -1.428495e+002 1.232262e+002 5.000000e+000
    endloop
  endfacet
  facet normal 0.000000e+000 0.000000e+000 6.782801e-001
    outer loop
      vertex   -9.951615e+001 8.322618e+001 5.000000e+000
      vertex   -1.428495e+002 1.232262e+002 5.000000e+000
      vertex   -1.428495e+002 8.322618e+001 5.000000e+000
    endloop
  endfacet
  facet normal 0.000000e+000 -0.000000e+000 7.348034e-001
    outer loop
      vertex   -1.428495e+002 8.322618e+001 5.000000e+000
      vertex   -1.428495e+002 1.232262e+002 5.000000e+000
      vertex   -1.861828e+002 1.232262e+002 5.000000e+000
    endloop
  endfacet
  facet normal 0.000000e+000 0.000000e+000 6.782802e-001
    outer loop
      vertex   -1.428495e+002 8.322618e+001 5.000000e+000
      vertex   -1.861828e+002 1.232262e+002 5.000000e+000
      vertex   -1.861828e+002 8.322618e+001 5.000000e+000
    endloop
  endfacet
  facet normal 0.000000e+000 0.000000e+000 1.000000e+000
    outer loop
      vertex   -9.951615e+001 1.632262e+002 5.000000e+000
      vertex   -1.428495e+002 1.632262e+002 5.000000e+000
      vertex   -9.951615e+001 1.232262e+002 5.000000e+000
    endloop
  endfacet
  facet normal 0.000000e+000 0.000000e+000 6.782801e-001
    outer loop
      vertex   -9.951615e+001 1.232262e+002 5.000000e+000
      vertex   -1.428495e+002 1.632262e+002 5.000000e+000
      vertex   -1.428495e+002 1.232262e+002 5.000000e+000
    endloop
  endfacet
  facet normal 0.000000e+000 0.000000e+000 1.000000e+000
    outer loop
      vertex   -1.428495e+002 1.632262e+002 5.000000e+000
      vertex   -1.861828e+002 1.632262e+002 5.000000e+000
      vertex   -1.428495e+002 1.232262e+002 5.000000e+000
    endloop
  endfacet
  facet normal 0.000000e+000 0.000000e+000 6.782802e-001
    outer loop
      vertex   -1.428495e+002 1.232262e+002 5.000000e+000
      vertex   -1.861828e+002 1.632262e+002 5.000000e+000
      vertex   -1.861828e+002 1.232262e+002 5.000000e+000
    endloop
  endfacet
  facet normal 0.000000e+000 0.000000e+000 -1.000000e+000
    outer loop
      vertex   -1.861828e+002 1.632262e+002 0.000000e+000
      vertex   -1.428495e+002 1.632262e+002 0.000000e+000
      vertex   -1.861828e+002 1.232262e+002 0.000000e+000
    endloop
  endfacet
  facet normal 0.000000e+000 0.000000e+000 -6.782802e-001
    outer loop
      vertex   -1.861828e+002 1.232262e+002 0.000000e+000
      vertex   -1.428495e+002 1.632262e+002 0.000000e+000
      vertex   -1.428495e+002 1.232262e+002 0.000000e+000
    endloop
  endfacet
  facet normal 0.000000e+000 0.000000e+000 -1.000000e+000
    outer loop
      vertex   -1.861828e+002 1.232262e+002 0.000000e+000
      vertex   -1.428495e+002 1.232262e+002 0.000000e+000
      vertex   -1.861828e+002 8.322618e+001 0.000000e+000
    endloop
  endfacet
  facet normal 0.000000e+000 0.000000e+000 -6.782802e-001
    outer loop
      vertex   -1.861828e+002 8.322618e+001 0.000000e+000
      vertex   -1.428495e+002 1.232262e+002 0.000000e+000
      vertex   -1.428495e+002 8.322618e+001 0.000000e+000
    endloop
  endfacet
  facet normal 0.000000e+000 0.000000e+000 -7.348034e-001
    outer loop
      vertex   -1.428495e+002 8.322618e+001 0.000000e+000
      vertex   -1.428495e+002 1.232262e+002 0.000000e+000
      vertex   -9.951615e+001 1.232262e+002 0.000000e+000
    endloop
  endfacet
  facet normal 0.000000e+000 0.000000e+000 -6.782801e-001
    outer loop
      vertex   -1.428495e+002 8.322618e+001 0.000000e+000
      vertex   -9.951615e+001 1.232262e+002 0.000000e+000
      vertex   -9.951615e+001 8.322618e+001 0.000000e+000
    endloop
  endfacet
  facet normal 0.000000e+000 0.000000e+000 -7.348034e-001
    outer loop
      vertex   -9.951615e+001 8.322618e+001 0.000000e+000
      vertex   -9.951615e+001 1.232262e+002 0.000000e+000
      vertex   -5.618282e+001 1.232262e+002 0.000000e+000
    endloop
  endfacet
  facet normal 0.000000e+000 0.000000e+000 -6.782801e-001
    outer loop
      vertex   -9.951615e+001 8.322618e+001 0.000000e+000
      vertex   -5.618282e+001 1.232262e+002 0.000000e+000
      vertex   -5.618282e+001 8.322618e+001 0.000000e+000
    endloop
  endfacet
  facet normal 0.000000e+000 0.000000e+000 -1.000000e+000
    outer loop
      vertex   -1.428495e+002 1.632262e+002 0.000000e+000
      vertex   -9.951615e+001 1.632262e+002 0.000000e+000
      vertex   -1.428495e+002 1.232262e+002 0.000000e+000
    endloop
  endfacet
  facet normal 0.000000e+000 0.000000e+000 -6.782801e-001
    outer loop
      vertex   -1.428495e+002 1.232262e+002 0.000000e+000
      vertex   -9.951615e+001 1.632262e+002 0.000000e+000
      vertex   -9.951615e+001 1.232262e+002 0.000000e+000
    endloop
  endfacet
  facet normal 0.000000e+000 0.000000e+000 -1.000000e+000
    outer loop
      vertex   -9.951615e+001 1.632262e+002 0.000000e+000
      vertex   -5.618282e+001 1.632262e+002 0.000000e+000
      vertex   -9.951615e+001 1.232262e+002 0.000000e+000
    endloop
  endfacet
  facet normal 0.000000e+000 0.000000e+000 -6.782801e-001
    outer loop
      vertex   -9.951615e+001 1.232262e+002 0.000000e+000
      vertex   -5.618282e+001 1.632262e+002 0.000000e+000
      vertex   -5.618282e+001 1.232262e+002 0.000000e+000
    endloop
  endfacet
endsolid
