solid ascii
  facet normal -1.000000e+000 0.000000e+000 0.000000e+000
    outer loop
      vertex   -2.000000e+002 1.750000e+002 0.000000e+000
      vertex   -2.000000e+002 1.600000e+002 0.000000e+000
      vertex   -2.000000e+002 1.750000e+002 5.000000e+001
    endloop
  endfacet
  facet normal -9.578263e-001 -0.000000e+000 0.000000e+000
    outer loop
      vertex   -2.000000e+002 1.750000e+002 5.000000e+001
      vertex   -2.000000e+002 1.600000e+002 0.000000e+000
      vertex   -2.000000e+002 1.600000e+002 5.000000e+001
    endloop
  endfacet
  facet normal 0.000000e+000 1.000000e+000 -0.000000e+000
    outer loop
      vertex   -1.850000e+002 1.750000e+002 0.000000e+000
      vertex   -2.000000e+002 1.750000e+002 0.000000e+000
      vertex   -1.850000e+002 1.750000e+002 5.000000e+001
    endloop
  endfacet
  facet normal 0.000000e+000 9.578263e-001 0.000000e+000
    outer loop
      vertex   -1.850000e+002 1.750000e+002 5.000000e+001
      vertex   -2.000000e+002 1.750000e+002 0.000000e+000
      vertex   -2.000000e+002 1.750000e+002 5.000000e+001
    endloop
  endfacet
  facet normal 1.000000e+000 0.000000e+000 0.000000e+000
    outer loop
      vertex   -1.850000e+002 1.600000e+002 0.000000e+000
      vertex   -1.850000e+002 1.750000e+002 0.000000e+000
      vertex   -1.850000e+002 1.600000e+002 5.000000e+001
    endloop
  endfacet
  facet normal 9.578263e-001 -0.000000e+000 0.000000e+000
    outer loop
      vertex   -1.850000e+002 1.600000e+002 5.000000e+001
      vertex   -1.850000e+002 1.750000e+002 0.000000e+000
      vertex   -1.850000e+002 1.750000e+002 5.000000e+001
    endloop
  endfacet
  facet normal 0.000000e+000 -1.000000e+000 0.000000e+000
    outer loop
      vertex   -2.000000e+002 1.600000e+002 0.000000e+000
      vertex   -1.850000e+002 1.600000e+002 0.000000e+000
      vertex   -2.000000e+002 1.600000e+002 5.000000e+001
    endloop
  endfacet
  facet normal 0.000000e+000 -9.578263e-001 0.000000e+000
    outer loop
      vertex   -2.000000e+002 1.600000e+002 5.000000e+001
      vertex   -1.850000e+002 1.600000e+002 0.000000e+000
      vertex   -1.850000e+002 1.600000e+002 5.000000e+001
    endloop
  endfacet
  facet normal 0.000000e+000 0.000000e+000 1.000000e+000
    outer loop
      vertex   -2.000000e+002 1.600000e+002 5.000000e+001
      vertex   -1.850000e+002 1.600000e+002 5.000000e+001
      vertex   -2.000000e+002 1.750000e+002 5.000000e+001
    endloop
  endfacet
  facet normal -0.000000e+000 0.000000e+000 7.071068e-001
    outer loop
      vertex   -2.000000e+002 1.750000e+002 5.000000e+001
      vertex   -1.850000e+002 1.600000e+002 5.000000e+001
      vertex   -1.850000e+002 1.750000e+002 5.000000e+001
    endloop
  endfacet
  facet normal 0.000000e+000 0.000000e+000 -1.000000e+000
    outer loop
      vertex   -1.850000e+002 1.600000e+002 0.000000e+000
      vertex   -2.000000e+002 1.600000e+002 0.000000e+000
      vertex   -1.850000e+002 1.750000e+002 0.000000e+000
    endloop
  endfacet
  facet normal -0.000000e+000 0.000000e+000 -7.071068e-001
    outer loop
      vertex   -1.850000e+002 1.750000e+002 0.000000e+000
      vertex   -2.000000e+002 1.600000e+002 0.000000e+000
      vertex   -2.000000e+002 1.750000e+002 0.000000e+000
    endloop
  endfacet
endsolid
